<?xml version="1.0" encoding="UTF-8" standalone="no"?>
<!-- Created with Inkscape (http://www.inkscape.org/) -->

<svg
   width="256"
   height="256"
   viewBox="0 0 67.733332 67.733336"
   version="1.1"
   id="svg24971"
   inkscape:version="1.1.2 (b8e25be833, 2022-02-05)"
   sodipodi:docname="amande.svg"
   xmlns:inkscape="http://www.inkscape.org/namespaces/inkscape"
   xmlns:sodipodi="http://sodipodi.sourceforge.net/DTD/sodipodi-0.dtd"
   xmlns="http://www.w3.org/2000/svg"
   xmlns:svg="http://www.w3.org/2000/svg">
  <sodipodi:namedview
     id="namedview24973"
     pagecolor="#ffffff"
     bordercolor="#000000"
     borderopacity="0.25"
     inkscape:pageshadow="2"
     inkscape:pageopacity="0.0"
     inkscape:pagecheckerboard="0"
     inkscape:document-units="mm"
     showgrid="false"
     units="px"
     inkscape:zoom="2.001537"
     inkscape:cx="93.428203"
     inkscape:cy="100.17302"
     inkscape:window-width="1920"
     inkscape:window-height="991"
     inkscape:window-x="-9"
     inkscape:window-y="-9"
     inkscape:window-maximized="1"
     inkscape:current-layer="layer4" />
  <defs
     id="defs24968" />
  <g
     inkscape:label="Calque 1"
     inkscape:groupmode="layer"
     id="layer1"
     style="opacity:0.526087" />
  <g
     inkscape:groupmode="layer"
     id="layer4"
     inkscape:label="Calque 2">
    <g
       id="g36656"
       transform="matrix(2.1276811,0,0,2.1276811,-0.92948017,-3.3070412)">
      <path
         style="opacity:1;fill:#dc7d21;fill-opacity:1;stroke:none;stroke-width:0.3;stroke-linecap:round;stroke-linejoin:round;paint-order:fill markers stroke"
         d="m 32.201844,23.26419 c 0.95395,-5.780673 -8.163834,-12.231188 -13.176468,-9.627694 -0.498475,0.258901 -1.264525,0.586887 -1.445797,1.248643 -1.200254,4.38168 10.677054,10.392114 14.622265,8.379051 z"
         id="path26202"
         sodipodi:nodetypes="cssc" />
      <path
         style="opacity:1;fill:#c3701d;fill-opacity:0.396166;stroke:none;stroke-width:0.3;stroke-linecap:round;stroke-linejoin:round;stroke-opacity:1;paint-order:fill markers stroke"
         d="m 18.573307,18.04394 c 0.131276,0.174711 0.182008,0.225819 0.28912,0.345396 1.165445,-0.731977 2.462277,-3.993148 1.990552,-5.296217 -0.424585,0.05136 -0.372563,0.04109 -0.556096,0.139723 -0.372155,0.200006 7.02e-4,1.120068 -0.230984,1.583398 -0.185523,0.371046 -0.324203,1.418615 -0.450409,1.823757 -0.109132,0.62839 -0.923443,0.98998 -1.042187,1.403939 z"
         id="path32718"
         sodipodi:nodetypes="cccssccc" />
      <path
         style="opacity:1;fill:#dc7d21;fill-opacity:1;stroke:none;stroke-width:0.3;stroke-linecap:round;stroke-linejoin:round;stroke-opacity:1;paint-order:fill markers stroke"
         d="M 0.44162599,22.434786 C 0.19166957,15.804504 9.81172,7.6078815 16.071566,8.2434705 18.109893,8.4504306 19.838744,9.583861 20.369989,12.254428 22.09188,20.910365 6.9335684,24.491901 0.44162599,22.434786 Z"
         id="path25077"
         sodipodi:nodetypes="cssc" />
      <path
         style="opacity:1;fill:#dc7d21;fill-opacity:1;stroke:none;stroke-width:0.3;stroke-linecap:round;stroke-linejoin:round;stroke-opacity:1;paint-order:fill markers stroke"
         d="m 18.855049,26.387871 c 13.052805,-4.337128 -6.466185,-12.015382 -8.247615,-4.764558 -1.0473116,4.262794 4.971959,5.852979 8.247615,4.764558 z"
         id="path26547"
         sodipodi:nodetypes="sss" />
      <path
         style="opacity:1;fill:#ead8ba;fill-opacity:1;stroke:none;stroke-width:0.3;stroke-linecap:round;stroke-linejoin:round;stroke-opacity:1;paint-order:fill markers stroke"
         d="m 18.662647,25.644325 c 0.675826,-0.837226 1.159051,-2.911673 0.727161,-3.931449 -1.529686,-3.611889 -5.031367,-3.704507 -7.307964,-2.068828 -5.8105402,4.530502 3.931868,9.281829 6.580803,6.000277 z"
         id="path27310"
         sodipodi:nodetypes="sscs" />
      <path
         style="opacity:1;fill:#ead8ba;fill-opacity:0.52549;stroke:none;stroke-width:0.3;stroke-linecap:round;stroke-linejoin:round;stroke-opacity:1;paint-order:fill markers stroke"
         id="path31189"
         d="m 13.281501,12.876548 c -0.571662,0.453662 -1.018765,1.037916 -1.46122,1.612147 -0.341814,0.461348 -0.673641,0.935228 -0.908085,1.461817 -0.09849,0.221212 -0.126146,0.31954 -0.199987,0.540204 -0.05775,0.182684 -0.08583,0.366849 -0.06581,0.556887 0,0 4.76e-4,-5e-5 4.76e-4,-5e-5 v 0 c -0.02005,-0.189972 0.008,-0.37408 0.06572,-0.556712 0.07382,-0.220666 0.101454,-0.318959 0.199927,-0.540175 0.234404,-0.526584 0.566202,-1.000462 0.908003,-1.461791 0.442444,-0.574194 0.88955,-1.158426 1.461276,-1.611959 0,0 -2.91e-4,-3.71e-4 -2.91e-4,-3.71e-4 z" />
      <path
         style="opacity:1;fill:#a05c18;fill-opacity:0.52549;stroke:none;stroke-width:0.3;stroke-linecap:round;stroke-linejoin:round;stroke-opacity:1;paint-order:fill markers stroke"
         d="m 12.297619,11.164944 c -3.6956488,1.13119 -8.1292057,5.877179 -9.1827615,8.616424"
         id="path31480" />
      <path
         style="opacity:1;fill:#a05c18;fill-opacity:0.52549;stroke:none;stroke-width:0.3;stroke-linecap:round;stroke-linejoin:round;stroke-opacity:1;paint-order:fill markers stroke"
         d="m 17.273301,11.690829 c -2.674004,0.945404 -5.727832,2.862237 -7.4837487,5.097039"
         id="path31515" />
      <path
         style="opacity:1;fill:#a05c18;fill-opacity:0.52549;stroke:none;stroke-width:0.3;stroke-linecap:round;stroke-linejoin:round;stroke-opacity:1;paint-order:fill markers stroke"
         d="m 16.342889,16.828321 c -2.47756,0.673322 -5.484563,2.005631 -7.2814854,3.802553"
         id="path31517" />
      <path
         style="opacity:1;fill:#a05c18;fill-opacity:0.52549;stroke:none;stroke-width:0.3;stroke-linecap:round;stroke-linejoin:round;stroke-opacity:1;paint-order:fill markers stroke"
         d="M 8.6973295,19.134125 C 7.331607,19.774037 5.5849064,20.849713 4.8138706,22.006266"
         id="path31519" />
      <path
         style="opacity:1;fill:#a05c18;fill-opacity:0.52549;stroke:none;stroke-width:0.3;stroke-linecap:round;stroke-linejoin:round;stroke-opacity:1;paint-order:fill markers stroke"
         d="m 16.990132,9.951363 c -1.251595,0.209132 -2.353004,1.08953 -3.317121,1.860824"
         id="path31521" />
      <path
         style="opacity:1;fill:#a05c18;fill-opacity:0.52549;stroke:none;stroke-width:0.3;stroke-linecap:round;stroke-linejoin:round;stroke-opacity:1;paint-order:fill markers stroke"
         d="m 21.723097,17.516017 c 2.445944,0.524681 4.583822,2.891142 5.946546,4.935229"
         id="path31523" />
      <path
         style="opacity:1;fill:#a05c18;fill-opacity:0.52549;stroke:none;stroke-width:0.3;stroke-linecap:round;stroke-linejoin:round;stroke-opacity:1;paint-order:fill markers stroke"
         d="m 22.572604,15.210213 c 2.628306,0.500104 4.442711,2.65925 5.744281,4.611608"
         id="path31525" />
      <path
         style="opacity:1;fill:#a05c18;fill-opacity:0.52549;stroke:none;stroke-width:0.3;stroke-linecap:round;stroke-linejoin:round;stroke-opacity:1;paint-order:fill markers stroke"
         d="m 28.883223,17.920544 c 1.464755,0.814324 1.481162,2.998981 1.820373,4.287985"
         id="path31527" />
      <path
         style="opacity:1;fill:#a05c18;fill-opacity:0.52549;stroke:none;stroke-width:0.3;stroke-linecap:round;stroke-linejoin:round;stroke-opacity:1;paint-order:fill markers stroke"
         d="m 19.867463,25.39877 c 0.905808,-0.347313 1.7178,-0.796104 2.391426,-1.469731"
         id="path31553" />
      <path
         style="opacity:1;fill:#a05c18;fill-opacity:0.52549;stroke:none;stroke-width:0.3;stroke-linecap:round;stroke-linejoin:round;stroke-opacity:1;paint-order:fill markers stroke"
         d="m 20.340766,23.804486 c 0.799125,-0.109201 1.630868,-0.4464 2.241963,-0.921696"
         id="path31555" />
      <path
         style="opacity:1;fill:#a05c18;fill-opacity:0.52549;stroke:none;stroke-width:0.3;stroke-linecap:round;stroke-linejoin:round;stroke-opacity:1;paint-order:fill markers stroke"
         d="m 20.49023,22.50913 c 0.601719,0.0796 1.206433,-0.03062 1.768659,-0.199286"
         id="path31557" />
      <path
         style="opacity:1;fill:#a05c18;fill-opacity:0.52549;stroke:none;stroke-width:0.3;stroke-linecap:round;stroke-linejoin:round;stroke-opacity:1;paint-order:fill markers stroke"
         d="m 20.041838,21.388149 c 0.681006,-0.324568 1.081452,0.01783 1.619195,0.348749"
         id="path31559" />
      <path
         style="opacity:1;fill:#a05c18;fill-opacity:0.52549;stroke:none;stroke-width:0.3;stroke-linecap:round;stroke-linejoin:round;stroke-opacity:1;paint-order:fill markers stroke"
         d="m 19.294517,19.893507 c 0.712855,0.119888 1.440041,0.611278 2.017766,0.996428"
         id="path31563" />
      <path
         style="opacity:1;fill:#a05c18;fill-opacity:0.52549;stroke:none;stroke-width:0.3;stroke-linecap:round;stroke-linejoin:round;stroke-opacity:1;paint-order:fill markers stroke"
         d="m 21.522839,14.273827 c 1.84732,-0.204958 3.139369,0.684308 4.608479,1.619196"
         id="path31567" />
      <path
         style="opacity:1;fill:#a05c18;fill-opacity:0.52549;stroke:none;stroke-width:0.3;stroke-linecap:round;stroke-linejoin:round;stroke-opacity:1;paint-order:fill markers stroke"
         d="m 20.924983,16.490879 c 0.592884,0.05485 1.136639,0.254239 1.644105,0.548036"
         id="path31569" />
      <path
         style="opacity:1;fill:#a05c18;fill-opacity:0.52549;stroke:none;stroke-width:0.3;stroke-linecap:round;stroke-linejoin:round;stroke-opacity:1;paint-order:fill markers stroke"
         d="m 28.124173,21.223911 c 0.838777,0.125004 0.993215,0.966299 1.120982,1.669017"
         id="path31571" />
      <path
         style="opacity:1;fill:#a05c18;fill-opacity:0.52549;stroke:none;stroke-width:0.3;stroke-linecap:round;stroke-linejoin:round;stroke-opacity:1;paint-order:fill markers stroke"
         d="m 27.376853,15.917933 c 0.658405,0.314101 1.130223,0.504107 1.345178,1.220624"
         id="path31573" />
      <path
         style="opacity:1;fill:#a05c18;fill-opacity:0.52549;stroke:none;stroke-width:0.3;stroke-linecap:round;stroke-linejoin:round;stroke-opacity:1;paint-order:fill markers stroke"
         d="m 19.106502,14.37347 c -1.2792,-0.06343 -2.663414,0.538403 -3.736604,1.021339"
         id="path31577" />
      <path
         style="opacity:1;fill:#a05c18;fill-opacity:0.52549;stroke:none;stroke-width:0.3;stroke-linecap:round;stroke-linejoin:round;stroke-opacity:1;paint-order:fill markers stroke"
         d="m 5.8041918,19.654537 c -0.8658741,0.0739 -2.1881862,1.619612 -2.2668733,1.693928"
         id="path31579" />
    </g>
  </g>
</svg>
