<?xml version="1.0" encoding="UTF-8" standalone="no"?>
<!-- Created with Inkscape (http://www.inkscape.org/) -->

<svg
   width="256"
   height="256"
   viewBox="0 0 67.733332 67.733336"
   version="1.1"
   id="svg5"
   sodipodi:docname="artichaut.svg"
   inkscape:version="1.1.2 (b8e25be833, 2022-02-05)"
   xmlns:inkscape="http://www.inkscape.org/namespaces/inkscape"
   xmlns:sodipodi="http://sodipodi.sourceforge.net/DTD/sodipodi-0.dtd"
   xmlns="http://www.w3.org/2000/svg"
   xmlns:svg="http://www.w3.org/2000/svg">
  <sodipodi:namedview
     id="namedview1448"
     pagecolor="#ffffff"
     bordercolor="#000000"
     borderopacity="0.25"
     inkscape:pageshadow="2"
     inkscape:pageopacity="0.0"
     inkscape:pagecheckerboard="0"
     showgrid="false"
     inkscape:zoom="1.5585938"
     inkscape:cx="43.629073"
     inkscape:cy="76.030075"
     inkscape:window-width="1920"
     inkscape:window-height="991"
     inkscape:window-x="-9"
     inkscape:window-y="-9"
     inkscape:window-maximized="1"
     inkscape:current-layer="layer1" />
  <defs
     id="defs2" />
  <g
     id="layer1"
     style="opacity:1">
    <g
       id="g37408"
       transform="matrix(0.67229502,0,0,0.67229502,-39.138345,-15.881596)">
      <path
         style="opacity:1;fill:#175717;fill-opacity:1;stroke-width:0.3;stroke-linecap:round;stroke-linejoin:round;paint-order:fill markers stroke"
         d="m 133.2737,105.80422 c -2.81817,-5.61438 4.67829,-7.391183 7.32558,-9.746691 2.08958,-1.859269 3.01956,-3.368157 4.73708,-5.658182 1.45353,-1.938044 0.0867,-0.250211 2.69083,-2.57781 1.61403,-1.357392 2.26139,-0.26713 2.19191,1.346609 -1.10789,13.870024 -12.75621,17.726624 -16.9454,16.636074"
         id="path6520" />
      <path
         style="opacity:1;fill:#338133;fill-opacity:1;stroke-width:0.3;stroke-linecap:round;stroke-linejoin:round;paint-order:fill markers stroke"
         d="m 98.162903,105.92645 c -4.112983,-1.34749 -9.859045,-3.54293 -13.026983,-6.710863 -1.940459,-1.940462 -4.480242,-4.871201 -7.105623,-5.921354 -1.398189,-0.437081 -8.126262,-7.371037 -8.477616,-4.7156 -0.533749,9.642912 18.896623,19.846467 25.978506,19.979537 2.536796,0 2.820607,-0.7428 2.631716,-2.63172 z"
         id="path4794" />
      <path
         style="opacity:1;fill:#175717;fill-opacity:1;stroke-width:0.3;stroke-linecap:round;stroke-linejoin:round;paint-order:fill markers stroke"
         d="m 101.8473,111.58464 0.4612,8.07107 c 0.10503,1.16634 0.35734,1.51212 1.03599,1.97158 6.16279,3.47467 12.3094,3.75907 18.02059,0.23105 1.03297,-0.58441 1.00958,-1.17989 1.00958,-2.34189 v -8.19498 c -6.84245,0.2744 -13.68491,0.33936 -20.52736,0.26317 z"
         id="path1610" />
      <path
         style="opacity:1;fill:#0b6f0b;fill-opacity:1;stroke-width:0.3;stroke-linecap:round;stroke-linejoin:round;paint-order:fill markers stroke"
         d="m 104.74242,109.89797 c -1.66402,-1.75497 -17.377398,-8.64166 -23.375437,-8.58894 -1.594233,-0.14399 -2.107901,0.10187 -1.875334,1.48517 2.724472,16.0736 32.823821,9.58343 25.250771,7.10377 z"
         id="path4594" />
      <path
         style="opacity:1;fill:#175717;fill-opacity:1;stroke-width:0.3;stroke-linecap:round;stroke-linejoin:round;paint-order:fill markers stroke"
         d="M 88.388628,97.452072 C 82.874934,94.762704 80.100883,81.785607 73.458332,72.353881 c -3.933339,-5.584929 -6.941123,-3.91499 -6.447935,1.816647 2.460451,19.034132 23.462966,33.153352 21.378231,23.281544 z"
         id="path6351" />
      <path
         style="opacity:1;fill:#0b6f0b;fill-opacity:1;stroke-width:0.3;stroke-linecap:round;stroke-linejoin:round;paint-order:fill markers stroke"
         d="m 77.503954,71.779978 c 0.380831,-5.726352 -0.571489,-9.624117 -2.108109,-15.727795 -0.666517,-2.666067 -2.761517,-2.243168 -3.782776,0.628428 -2.091186,5.880041 0.683829,20.22272 4.927369,23.051748 3.770674,2.513784 1.508367,-6.136207 0.963516,-7.952381 z"
         id="path8017" />
      <path
         style="opacity:1;fill:#338133;fill-opacity:1;stroke-width:0.3;stroke-linecap:round;stroke-linejoin:round;paint-order:fill markers stroke"
         d="m 124.08528,38.686184 c 0.13621,-2.819432 -4.43194,-8.063065 -3.75019,-10.790025 0.56064,-2.63729 1.43073,-2.776391 5.00485,0.520427 4.35163,4.01401 10.08037,16.712628 3.74559,18.296323 -0.98845,0.247113 -2.84605,0.51394 -3.55281,-0.394758 -1.43836,-1.849313 -0.55334,-5.396696 -1.44744,-7.631967 z"
         id="path8297" />
      <path
         style="opacity:1;fill:#61a761;fill-opacity:1;stroke-width:0.3;stroke-linecap:round;stroke-linejoin:round;paint-order:fill markers stroke"
         d="m 112.76891,111.91361 c 2.81551,-2.83451 8.18884,-3.86768 11.84271,-5.32923 4.14275,-1.6571 7.21004,-5.42982 11.44795,-6.842449 5.79349,-1.931162 -0.89691,7.936759 -1.97378,9.013619 -4.68968,4.68968 -15.39529,5.52669 -21.31688,3.15806 z"
         id="path4062" />
      <path
         style="opacity:1;fill:#175717;fill-opacity:1;stroke-width:0.3;stroke-linecap:round;stroke-linejoin:round;paint-order:fill markers stroke"
         d="m 124.61162,33.159586 c -1.47985,-2.788106 -4.75876,-5.975001 -6.55134,-6.813032 -2.31069,-1.080253 -2.99642,-0.964201 -4.0665,1.575626 -1.55923,3.700845 -0.0656,7.804164 5.61759,11.356139 4.47392,2.796199 7.23642,-1.646399 5.00025,-6.118733 z"
         id="path8367" />
      <path
         style="opacity:1;fill:#61a761;fill-opacity:1;stroke-width:0.3;stroke-linecap:round;stroke-linejoin:round;paint-order:fill markers stroke"
         d="m 107.76866,44.870711 c -4.07673,-3.462766 -2.93529,-6.650802 -2.36855,-11.184782 0.0391,-3.438411 0.64879,-5.284151 1.48408,-6.678502 2.75159,-4.593215 4.09619,-4.471385 6.4587,0.122919 2.322,4.515533 4.76301,10.847092 -5.57423,17.740365 z"
         id="path8435" />
      <path
         style="opacity:1;fill:#338133;fill-opacity:1;stroke-width:0.3;stroke-linecap:round;stroke-linejoin:round;paint-order:fill markers stroke"
         d="m 94.346918,35.528128 c 0.676187,-1.815277 0.925488,-4.412099 2.02829,-5.956022 1.360876,-1.905228 4.266532,-3.694577 6.316102,-4.276534 2.76188,-0.784206 3.85507,-0.516667 4.46763,3.19626 1.53046,9.276653 -5.62716,29.891304 -12.812022,7.036296 z"
         id="path8365" />
      <path
         style="opacity:1;fill:#175717;fill-opacity:1;stroke-width:0.3;stroke-linecap:round;stroke-linejoin:round;paint-order:fill markers stroke"
         d="m 94.478503,41.712655 c 9.865347,-23.701213 -11.932723,-3.781282 -9.73734,5.000255 1.098635,4.394528 9.337679,-3.00195 9.73734,-5.000255 z"
         id="path8227" />
      <path
         style="opacity:1;fill:#61a761;fill-opacity:1;stroke-width:0.3;stroke-linecap:round;stroke-linejoin:round;paint-order:fill markers stroke"
         d="m 86.188607,51.64737 c 0.291631,-2.115764 1.036553,-6.082231 2.236955,-7.895139 1.939362,-2.928921 4.512219,-4.751662 6.36769,-5.809028 4.654759,-2.65258 5.955048,-1.371782 7.192478,2.342362 1.65891,4.979229 1.28169,11.539948 -5.46765,14.914619 -2.000466,1.000234 -1.600894,-0.886383 -3.684398,0.131585 -2.378709,1.162201 -4.851457,-1.007775 -6.645075,-3.684399 z"
         id="path8225" />
      <path
         style="opacity:1;fill:#338133;fill-opacity:1;stroke-width:0.3;stroke-linecap:round;stroke-linejoin:round;paint-order:fill markers stroke"
         d="m 76.911817,66.648136 c -0.907936,-3.085767 -3.245705,-10.593717 0.0658,-17.171929 4.193092,-8.32946 5.74176,-7.879181 8.923157,-4.666753 4.066269,4.105933 6.62257,10.370907 5.946021,15.588362 -1.231249,9.495222 -11.045358,15.974355 -14.934974,6.25032 z"
         id="path8054" />
      <path
         style="opacity:1;fill:#0b6f0b;fill-opacity:1;stroke-width:0.3;stroke-linecap:round;stroke-linejoin:round;paint-order:fill markers stroke"
         d="m 111.51885,43.620645 c 0.71031,-2.540037 -0.33054,-4.029229 3.0478,-8.289164 3.88922,-4.904129 4.97402,-4.261874 9.39482,-0.179739 6.56724,6.064137 12.55288,19.018532 2.49235,21.956435 -4.90427,1.432157 -8.81671,-5.066634 -11.18478,-8.026726 -1.8011,-2.251374 -2.36183,-3.37826 -3.75019,-5.460806 z"
         id="path8295" />
      <path
         style="fill:#175717;fill-opacity:1;stroke-width:0.3;stroke-linecap:round;stroke-linejoin:round;paint-order:fill markers stroke"
         d="m 126.21789,54.024194 c 0.13621,-2.819432 0.20984,-10.685896 2.86537,-14.991884 2.71315,-5.583412 4.23833,-4.863666 7.27185,-1.422283 4.86393,5.517899 9.60449,21.09319 -0.39167,24.533937 -0.96339,0.331608 -6.28872,-0.695647 -6.99548,-1.604345 -1.43836,-1.849313 -1.85597,-4.280154 -2.75007,-6.515425 z"
         id="path8297-0" />
      <path
         style="fill:#338133;fill-opacity:1;stroke-width:0.3;stroke-linecap:round;stroke-linejoin:round;paint-order:fill markers stroke"
         d="m 129.2485,62.698512 c 0.45258,-3.168047 6.00185,-8.059133 8.29618,-10.104846 4.54451,-4.052058 7.60172,-1.402373 7.90507,4.706678 0.36415,7.333463 -0.84395,6.056453 -1.8681,10.219413 -2.95395,12.555076 -14.03439,7.30241 -14.33315,-4.821245 z"
         id="path7052-4" />
      <path
         style="opacity:1;fill:#61a761;fill-opacity:1;stroke-width:0.3;stroke-linecap:round;stroke-linejoin:round;paint-order:fill markers stroke"
         d="m 139.94168,72.16779 c 0.45258,-3.168047 1.03096,-4.6092 2.76958,-7.144168 3.95238,-5.762672 5.67271,-4.562064 6.7208,1.153865 0.89963,4.906302 0.0113,8.227616 -1.0128,12.390576 -6.65232,22.501107 -10.59613,6.405524 -8.47758,-6.400273 z"
         id="path7052" />
      <path
         style="opacity:1;fill:#338133;fill-opacity:1;stroke-width:0.3;stroke-linecap:round;stroke-linejoin:round;paint-order:fill markers stroke"
         d="m 131.23332,103.56146 c 8.43038,-2.4854 17.44518,-12.146019 17.79696,-22.369566 0.2187,-2.147598 -0.84073,-2.437522 -2.43465,-1.999763 -1.66156,0.456337 -7.69451,1.665548 -8.71724,3.348515 -5.97244,9.827977 -14.80258,10.532577 -6.64507,21.020814 z"
         id="path6687" />
      <path
         style="opacity:1;fill:#175717;fill-opacity:1;stroke-width:0.3;stroke-linecap:round;stroke-linejoin:round;paint-order:fill markers stroke"
         d="m 119.72198,77.532479 c 2.0193,-6.085585 6.67893,-10.102337 17.0555,-10.774533 4.81298,-0.311786 6.84893,2.440702 6.68556,7.462977 -0.54844,16.860373 -14.22818,35.729497 -25.82546,14.46781 -0.62519,-1.836624 -1.12913,-4.604514 2.0844,-11.156254 z"
         id="path7285" />
      <path
         style="opacity:1;fill:#338133;fill-opacity:1;stroke-width:0.3;stroke-linecap:round;stroke-linejoin:round;paint-order:fill markers stroke"
         d="m 100.39986,52.897436 c 0.46649,-4.118954 -1.330653,-5.653643 3.95757,-11.835522 4.44608,-3.953367 6.19165,-3.189715 10.90991,-5.71e-4 15.81859,12.178165 4.80373,32.36379 -7.23551,20.323367 -2.29119,-2.291418 -6.6941,-5.908121 -7.63197,-8.487274 z"
         id="path8188" />
      <path
         style="opacity:1;fill:#61a761;fill-opacity:1;stroke-width:0.3;stroke-linecap:round;stroke-linejoin:round;paint-order:fill markers stroke"
         d="m 115.13745,64.608558 c 1.27293,-3.199966 4.52846,-5.928603 6.16672,-7.455146 4.56535,-4.254025 6.27106,-3.767993 9.15316,0.57688 2.75787,4.157576 4.32251,10.383568 1.58887,16.484019 -4.61622,10.301656 -15.22948,6.093608 -16.4482,2e-6 -0.5071,-2.535462 0.70387,-7.509781 -0.46055,-9.605755 z"
         id="path8190" />
      <path
         style="opacity:1;fill:#175717;fill-opacity:1;stroke-width:0.3;stroke-linecap:round;stroke-linejoin:round;paint-order:fill markers stroke"
         d="M 116.32172,63.292701 C 114.62988,57.378528 111.70789,54.059886 105.86067,49.410414 101.39472,45.733979 97.361773,46.34947 94.398154,49.261693 87.504692,56.035607 84.260922,75.23578 91.84679,80.92518 c 9.77494,7.331204 27.87519,-3.392701 24.47493,-17.632479 z"
         id="path7848" />
      <path
         style="opacity:1;fill:#61a761;fill-opacity:1;stroke-width:0.3;stroke-linecap:round;stroke-linejoin:round;paint-order:fill markers stroke"
         d="m 96.123325,73.687969 c -4.851289,-5.008585 -8.875171,-7.552676 -12.022598,-8.611693 -5.108669,-1.718919 -6.202016,-0.862473 -7.267399,3.397796 -2.10498,8.417425 0.459866,26.86815 10.078999,28.636145 8.808222,1.61895 23.243523,-7.61331 9.210998,-23.422248 z"
         id="path7949" />
      <path
         style="opacity:1;fill:#338133;fill-opacity:1;stroke-width:0.3;stroke-linecap:round;stroke-linejoin:round;paint-order:fill markers stroke"
         d="m 97.138271,91.086936 c 2.265327,-7.627227 1.959636,-12.062916 7.120979,-18.098285 8.26452,-7.795796 12.10905,-6.360298 18.34133,1.513747 20.00549,27.490332 -12.26166,43.913252 -25.462309,16.584538 z"
         id="path6085" />
      <path
         style="opacity:1;fill:#175717;fill-opacity:1;stroke-width:0.3;stroke-linecap:round;stroke-linejoin:round;paint-order:fill markers stroke"
         d="m 114.65045,102.18311 c -2.11024,-5.053755 -6.01388,-7.77805 -11.11431,-11.491734 -4.973285,-3.621105 -8.952415,-5.287273 -14.946721,-5.479384 -3.99252,-0.06794 -4.213852,1.066742 -4.636577,4.447947 -0.293435,5.671658 1.547306,10.505971 5.895082,14.853751 5.878698,5.8787 27.869026,7.74122 24.802526,-2.33058 z"
         id="path5819" />
      <path
         style="opacity:1;fill:#0b6f0b;fill-opacity:1;stroke-width:0.3;stroke-linecap:round;stroke-linejoin:round;paint-order:fill markers stroke"
         d="m 107.72077,106.57002 c 4.38177,-5.67774 13.86704,-10.86779 21.16452,-13.033523 2.06284,-0.503103 2.61514,0.269712 3.088,2.296508 1.78098,10.008765 -6.71204,16.807555 -20.44783,14.730865 -3.05931,-1.52965 -2.18008,-1.82769 -3.80469,-3.99385 z"
         id="path4328" />
      <path
         style="opacity:1;fill:#338133;fill-opacity:1;stroke-width:0.3;stroke-linecap:round;stroke-linejoin:round;paint-order:fill markers stroke"
         d="m 107.94072,113.78113 c -4.21389,0.29489 -9.565973,-4.35151 -9.203811,-10.89586 -0.03604,-0.72895 0.334667,-1.03734 0.955718,-1.04378 4.721113,-0.007 24.937743,10.84936 8.248093,11.93964"
         id="path3895" />
    </g>
  </g>
</svg>
