<?xml version="1.0" encoding="UTF-8" standalone="no"?>
<!-- Created with Inkscape (http://www.inkscape.org/) -->

<svg
   width="256"
   height="256"
   viewBox="0 0 67.733332 67.733335"
   version="1.1"
   id="svg21368"
   inkscape:version="1.1.2 (b8e25be833, 2022-02-05)"
   sodipodi:docname="blette.svg"
   xmlns:inkscape="http://www.inkscape.org/namespaces/inkscape"
   xmlns:sodipodi="http://sodipodi.sourceforge.net/DTD/sodipodi-0.dtd"
   xmlns="http://www.w3.org/2000/svg"
   xmlns:svg="http://www.w3.org/2000/svg">
  <sodipodi:namedview
     id="namedview21370"
     pagecolor="#ffffff"
     bordercolor="#000000"
     borderopacity="0.25"
     inkscape:pageshadow="2"
     inkscape:pageopacity="0.0"
     inkscape:pagecheckerboard="0"
     inkscape:document-units="mm"
     showgrid="false"
     units="px"
     inkscape:zoom="1.6369739"
     inkscape:cx="79.414828"
     inkscape:cy="212.89283"
     inkscape:window-width="1920"
     inkscape:window-height="991"
     inkscape:window-x="-9"
     inkscape:window-y="-9"
     inkscape:window-maximized="1"
     inkscape:current-layer="g78787" />
  <defs
     id="defs21365" />
  <g
     inkscape:groupmode="layer"
     id="layer4"
     inkscape:label="Dessin">
    <g
       id="g78787"
       transform="matrix(0.34600158,0,0,0.34600158,-5.9196778,-17.442587)">
      <path
         style="opacity:1;fill:#7e9829;fill-opacity:1;stroke:none;stroke-width:0.529167;stroke-linecap:round;stroke-linejoin:round;stroke-opacity:1;paint-order:fill markers stroke"
         d="m 88.23137,203.20645 c 16.83132,2.30043 14.99049,-8.53888 20.3435,-21.02924 2.23244,-5.20903 7.36299,-4.81688 8.45741,-11.8861 1.06324,-6.86776 -6.45027,-10.72671 -4.57157,-16.45765 0.75978,-2.31769 4.80277,-5.85481 6.18492,-12.9121 1.271,-6.48972 0.5895,-16.81916 0.90102,-22.5176 0.81294,-14.87075 -7.58992,-22.061415 -17.47139,-34.459647 C 95.848712,76.131691 98.846267,63.605591 91.074433,59.320328 73.489502,49.624282 61.291914,53.653033 56.195432,55.506747 45.311321,59.465561 23.747947,81.096183 26.743705,92.117209 c 1.874825,6.897252 1.096972,8.975071 -0.4031,16.517921 -1.422145,7.151 -0.01564,16.28628 3.603202,25.88343 3.215471,8.52741 8.337317,3.82855 12.11467,17.71484 2.324392,8.54492 -0.613972,15.92821 2.971523,21.25782 5.585395,8.30234 5.297756,12.69548 6.400203,22.05784 0.92492,7.85473 8.747813,9.44891 15.769376,7.29991 3.484043,-1.06631 7.131808,-2.72834 9.37428,-2.72834 4.954717,0 6.990338,4.12297 11.657511,3.08582 z"
         id="path61751"
         sodipodi:nodetypes="cssssssssssssssssc" />
      <path
         style="fill:#7e9829;fill-opacity:1;stroke:none;stroke-width:0.529167;stroke-linecap:round;stroke-linejoin:round;stroke-opacity:1;paint-order:fill markers stroke"
         d="m 139.3564,215.70528 c -3.91761,-7.40126 -3.53716,-17.53396 -6.90713,-25.09582 -1.63376,-3.66601 -1.32099,-9.64838 -3.42132,-14.02782 -3.33996,-6.96425 -8.35894,-9.89214 -8.33519,-16.45089 -0.17559,-12.63333 2.78577,-23.4704 7.77156,-35.02752 2.52156,-5.74265 5.47946,-8.42889 9.37035,-12.98557 1.32077,-1.54677 1.2929,-6.35934 4.29542,-10.23106 4.22752,-5.451357 13.4637,-11.543344 18.74495,-15.286868 3.78709,-2.684416 11.89605,-5.971239 16.99759,-4.015016 7.7589,2.975204 8.67229,13.436914 14.21149,19.016364 3.90862,3.93703 7.78952,10.45294 9.93129,15.66587 3.60634,8.77761 2.08572,17.38033 -0.0371,26.23334 -4.85442,20.24528 -12.73631,38.44307 -29.37599,51.77241 -5.30839,4.25233 -11.96593,3.38379 -16.34085,8.48205 -2.60413,3.03469 -5.35359,10.27664 -8.03316,13.18877 -2.54352,2.76427 -4.97727,1.35254 -8.87195,-1.23824 z"
         id="path40389"
         sodipodi:nodetypes="cssccssssssssssc" />
      <path
         style="fill:#993741;fill-opacity:1;stroke:none;stroke-width:0.529167;stroke-linecap:round;stroke-linejoin:round;stroke-opacity:1;paint-order:fill markers stroke"
         d="m 157.51984,186.28274 c -1.19695,6.20316 -7.25969,15.36799 -7.46448,24.67898 -0.0652,2.96235 -3.82094,10.38187 -5.87188,17.10832 -1.75463,5.75471 -1.78779,10.95853 -2.46712,12.91559 -0.76397,2.20096 -1.63445,4.52097 -3.33343,4.95967 -1.69979,0.43893 -2.8989,0.31431 -4.53324,-1.03324 -1.24673,-1.02796 -1.74048,-3.31492 -1.35416,-5.06099 0.75461,-3.41072 1.64008,-7.45014 2.8442,-10.59033 1.37169,-3.57716 1.34215,-8.58565 2.9147,-11.97723 2.47591,-5.33997 5.11695,-10.57183 7.65905,-16.07954 -10.74983,-7.89595 -4.04191,-17.2925 -9.34829,-24.77857 -2.75576,-3.88775 -5.79802,-7.47825 -7.6451,-11.97392 -0.11439,-0.27842 -1.16183,-2.25164 -1.58469,-3.63379 0.6334,1.01941 1.14328,1.94547 1.85941,3.04264 1.1769,1.80313 2.18012,3.60723 3.76933,5.10796 1.44049,1.36029 5.3561,5.12965 6.62528,8.0884 2.86547,6.68003 -0.10576,16.05837 7.93316,20.94642 0.48401,-1.20058 0.98965,-2.34408 1.48781,-3.50414 2.09059,-4.86824 3.54739,-9.79247 4.74304,-14.70256 -3.26252,-1.64377 -7.37157,-4.51425 -8.35298,-8.59311 -0.78962,-3.28175 -1.14428,-6.24321 -2.88963,-9.24977 -1.78843,-3.08077 -5.53114,-4.73216 -6.80269,-8.40861 -0.97626,-2.82267 -1.84668,-6.31162 -1.59919,-10.01582 0.15337,-2.29533 0.10408,-2.73203 0.45891,-4.73548 0.43424,2.57888 0.29418,5.45188 0.62106,7.5873 1.8465,12.06277 5.45922,8.04728 9.55001,15.43029 3.05643,5.5162 0.80868,11.77265 9.57374,14.2381 1.97622,-9.82597 2.72324,-19.695 4.51462,-29.37229 0.5361,-2.89627 1.18301,-5.18919 1.92904,-7.29569 -4.32539,-1.32673 -6.83831,-7.01953 -7.46508,-11.08451 -0.4354,-2.82378 -0.64853,-6.04458 -0.4002,-8.88358 0.33463,-3.82563 0.0709,-5.62608 -0.34652,-8.99215 -0.27524,-2.21939 0.68407,-6.4551 0.68498,-6.36839 0.0322,3.08119 1.19098,10.91341 1.36708,12.59846 0.91588,8.76379 -1.92347,15.3123 7.16734,20.1938 1.27815,-2.94174 2.80281,-5.8395 4.58899,-9.99338 1.98193,-4.60911 4.58061,-27.470687 8.57424,-34.441753 1.92417,-3.358692 2.59152,-2.419862 2.18794,0.554101 -0.7735,5.699791 -3.60669,18.318462 -4.34349,20.785252 -1.19921,4.01487 -2.46879,8.14387 -3.63692,12.33726 4.54755,0.96184 7.02107,-3.65389 10.0477,-6.07839 2.12462,-1.70194 5.07315,-2.59756 7.6851,-3.34511 0.40556,-0.11607 3.5243,-0.82765 4.87885,-1.07563 -1.05939,0.74159 -2.66083,1.39888 -3.4018,1.55285 -2.18117,0.45323 -3.6265,1.65918 -5.63209,2.60818 -5.60935,2.65419 -5.85015,10.64985 -14.54419,9.16679 -2.60676,8.41299 -5.13,16.74434 -7.00712,24.06008 -0.65525,2.55372 -1.26583,4.98452 -1.44802,7.31834 4.21189,-2.2875 10.8244,-2.81071 13.55246,-6.76376 2.2302,-3.23161 3.13565,-6.05177 5.27057,-7.44888 3.41522,-2.23494 7.59742,-6.56191 11.80816,-8.54641 -2.18198,2.7322 -2.78022,3.21456 -4.19641,4.41116 -2.27358,1.92104 -3.86432,2.75478 -6.09841,4.74321 -2.4104,2.14535 -2.97319,4.82982 -4.69889,7.36023 -3.33847,4.89523 -10.76985,8.18513 -15.98256,10.02283 -0.69335,6.07758 -0.64013,11.50228 -0.98775,16.72364 4.39824,0.71229 5.06023,-4.60761 7.27503,-6.953 1.8673,-1.97738 4.73817,-2.41381 6.79167,-4.1204 1.68783,-1.40271 2.49148,-3.97844 4.52057,-5.08734 2.21734,-1.21178 3.15226,-1.97862 7.83369,-3.76887 -4.00865,2.90785 -6.76534,4.31937 -7.24046,4.82894 -1.18823,1.27438 -3.36484,3.68033 -4.3188,5.26466 -1.23527,2.05149 -4.86821,2.05278 -6.09754,4.35467 -0.79574,1.48997 -1.21693,2.60986 -1.81028,4.15724 -1.32842,3.46432 -4.7511,3.77997 -7.34633,4.12095 -0.14945,0.88279 -0.29379,1.78732 -0.46754,2.6904 z"
         id="path28923"
         sodipodi:nodetypes="ssssssssscsscssscscsssscsscscssssscsssscsscsscscsscsssccssscsssscss" />
      <path
         style="opacity:1;fill:#993741;fill-opacity:1;stroke:none;stroke-width:0.529167;stroke-linecap:round;stroke-linejoin:round;stroke-opacity:1;paint-order:fill markers stroke"
         d="m 90.473023,199.99837 c 1.628166,3.18245 1.333002,5.82648 3.538355,8.97381 2.068094,2.95145 5.024541,5.38581 6.958972,8.13398 3.05529,4.34056 5.15289,8.41855 7.88065,11.24395 2.79634,2.89645 10.86535,4.64441 13.08613,7.88596 2.47782,3.61674 0.44386,7.21052 -2.85723,6.05733 -2.85598,-0.99769 -4.81407,-2.48291 -7.2659,-3.73374 -1.88434,-0.96131 -3.79028,-1.14756 -5.93451,-3.29505 -2.71951,-2.72365 -6.336994,-9.77544 -10.771032,-16.28147 -3.350483,-4.91614 -8.078432,-9.27314 -9.343894,-11.89085 -2.00869,-4.15514 -3.749293,-8.47545 -5.429886,-12.84836 -3.332761,-1.3045 -4.889918,3.17154 -8.409534,2.54003 -2.943797,-0.5282 -3.27138,-2.17538 -4.848886,-5.21255 -0.426002,-0.82018 -0.833385,-1.33345 -1.697111,-2.22241 0.974169,0.10556 2.260511,0.7722 3.223249,1.88539 1.616891,1.86956 2.545883,4.20088 4.575376,4.0545 2.485326,-0.17926 2.706016,-4.00976 6.453095,-3.13382 -1.376777,-3.9894 -2.678597,-7.97927 -3.968159,-11.90419 -2.395245,-0.38267 -3.490577,1.5065 -5.555896,2.30968 -5.20659,2.02479 -8.017742,-0.87238 -11.273661,-4.364 -0.923395,-0.99024 -1.575886,-1.63172 -3.111367,-2.94974 1.333444,-0.007 3.967739,1.28771 5.131735,2.14159 1.233622,0.90496 3.293929,3.52772 4.848888,3.83871 3.515278,0.70305 5.394566,-3.48389 9.364249,-2.84547 -1.063453,-3.99644 -2.380254,-8.01454 -3.421811,-11.90648 -3.081641,0.42677 -15.6508,-3.77197 -20.876758,-8.58901 -1.597582,-1.47258 -2.333587,-1.76976 -3.976337,-2.88343 2.868924,0.64868 5.2945,1.54397 6.384366,2.34362 5.270914,3.86735 11.303329,5.96726 17.644045,5.40006 -1.106742,-4.48328 -1.977796,-8.94884 -2.628074,-13.41022 -6.724045,-2.34192 -9.843901,-2.09179 -15.420045,-9.52664 -2.689299,-3.58574 -4.832218,-7.65518 -7.515772,-11.23325 -1.934335,-2.57911 -1.753457,-4.46988 -3.879109,-6.62681 -1.923577,-1.95188 -3.853935,-4.97312 -4.76807,-8.48556 1.991913,1.94425 4.892427,5.09061 6.909663,6.74804 2.782639,2.28631 2.608119,4.88918 4.404404,7.55618 1.114412,1.65461 3.326622,2.40056 4.60644,4.00033 1.405988,1.75749 2.019433,4.16039 3.232592,6.18233 1.891782,3.15296 8.26365,4.26594 11.52301,5.03254 -0.766095,-6.56465 -1.028356,-13.14623 -0.721245,-19.72229 0.289546,-6.19994 -1.0516,-11.54485 -1.643448,-17.08909 -3.44395,-0.88423 -5.769885,-3.80448 -10.004479,-5.31163 -3.834535,-1.364761 -6.690269,-2.578742 -9.086002,-6.571633 -2.583034,-4.305059 -3.2283,-9.068411 -2.264989,-13.884965 0.154289,-0.771443 0.361884,-2.03586 0.664939,-4.344186 0.917773,2.69253 1.348704,5.376417 1.71434,7.600242 0.431039,2.62161 0.661089,4.738959 1.714338,7.200228 2.60805,6.094581 11.646984,9.497834 17.031727,11.514324 -0.02325,-10.431961 -0.0871,-21.421179 2.159364,-25.947853 1.292239,-2.603894 2.491054,-2.623601 2.363856,0.290734 -0.09259,2.121329 -0.36386,5.381954 -0.36386,8.7712 0,4.656442 0.08245,10.214132 0.872288,15.428399 2.490165,-2.777495 7.770808,-6.318093 10.280509,-11.428276 1.044746,-2.12728 1.62044,-4.073075 3.485824,-5.771613 1.277815,-1.163523 2.29623,-3.018225 4.342995,-4.28585 -1.153931,2.046169 -3.289824,4.293862 -3.771548,5.085876 -1.731326,2.846515 -2.964394,7.419644 -4.971584,10.000319 -2.455794,3.157447 -6.103514,6.913264 -8.906921,9.374704 0.377637,2.20528 0.734311,4.3262 1.125659,6.28294 1.974084,9.87042 -0.280149,18.49117 1.314328,28.05803 0.612542,3.67526 5.100925,6.71766 5.371599,10.34319 0.124104,1.66231 0.01662,3.07592 -0.180694,4.45886 4.92142,-2.11683 7.682348,-5.91794 9.097108,-10.27907 1.009923,-3.11318 1.263891,-6.30739 3.199164,-9.16913 2.15151,-3.1815 6.958584,-4.31645 7.030884,-17.29436 0.0073,-1.31692 0.163961,-7.45288 1.85874,-11.55651 0.239528,2.58607 0.161628,5.18116 0.161628,5.65703 0,3.36772 0.341457,6.35474 0.484889,9.69778 0.441501,10.2902 -4.000291,9.86937 -7.434959,14.70828 -1.137918,1.60316 -2.042106,3.65367 -2.505257,5.73785 -0.156123,0.70255 -0.364612,1.41181 -0.588963,2.25167 3.465233,1.73284 6.505654,-0.89209 9.344837,-1.46978 1.117957,-0.22747 3.354993,1.13645 4.538093,1.14695 2.81227,0.0251 5.22188,-3.88218 6.83369,-6.40426 1.38633,-2.16925 1.85396,-4.19615 3.20011,-7.02879 -0.37979,3.35836 0.13922,5.29519 -1.37147,7.82881 -0.57599,0.96601 -6.32319,8.32794 -7.77168,8.97172 -2.45331,1.09037 -4.76217,-0.92381 -7.085939,-0.34287 -1.975485,0.49387 -4.474578,1.32429 -6.571636,0.80003 -0.812138,-0.20304 -1.614122,-0.71261 -2.278034,-1.0678 -2.335221,4.60964 -6.330824,8.88249 -10.223007,11.04505 0.383802,7.05475 3.819119,14.07672 4.414806,19.96469 2.926488,0.19008 6.192983,1.55255 8.52897,-0.78344 1.277552,-1.27755 1.528673,-3.50693 2.666887,-4.9297 0.980381,-1.22548 2.907064,-1.00678 3.879109,-2.46485 1.079325,-1.61899 1.634835,-4.5115 2.949734,-6.06111 1.69721,-2.00017 4.74381,-1.47585 6.46519,-1.41425 -1.47997,0.67724 -3.01484,1.46223 -4.16196,2.26282 -2.574899,1.79705 -1.85334,5.70731 -3.717484,6.95007 -1.01663,0.67775 -2.922919,0.84533 -3.919516,1.93955 -2.085391,2.28966 -2.694569,5.3657 -5.374182,7.15211 -2.495306,1.66354 -5.226105,1.5988 -7.629551,0.9496 0.04144,3.41825 1.265155,6.78008 3.041326,9.94118 3.078462,0.57345 5.634983,1.21173 7.335926,-2.00117 0.921091,-1.73984 2.551057,-3.62896 4.202369,-4.80847 2.381647,-1.70118 2.135249,-3.31559 3.879112,-5.49541 0.55511,-0.6939 2.86938,-2.78765 5.73785,-2.78811 -2.90676,1.28889 -4.0127,2.61676 -5.17215,4.48522 -0.7444,1.19961 -0.901801,2.76215 -1.858738,3.8387 -1.008891,1.135 -3.055712,1.68343 -3.959925,2.89923 -2.64468,3.55602 -4.011961,7.68406 -8.763187,6.75517 1.338899,2.63381 3.042696,5.11042 4.198043,7.33893 z"
         id="path52329"
         sodipodi:nodetypes="cssssssssscsscssccsscssccscsccssscsssscscssscsscssscsscsscssscssscsssscssscsssscccsssscssssccssscssscc" />
    </g>
  </g>
</svg>
