<?xml version="1.0" encoding="UTF-8" standalone="no"?>
<!-- Created with Inkscape (http://www.inkscape.org/) -->

<svg
   width="256"
   height="256"
   viewBox="0 0 67.733332 67.733335"
   version="1.1"
   id="svg5"
   inkscape:version="1.1.2 (b8e25be833, 2022-02-05)"
   sodipodi:docname="brocoli.svg"
   xmlns:inkscape="http://www.inkscape.org/namespaces/inkscape"
   xmlns:sodipodi="http://sodipodi.sourceforge.net/DTD/sodipodi-0.dtd"
   xmlns="http://www.w3.org/2000/svg"
   xmlns:svg="http://www.w3.org/2000/svg">
  <sodipodi:namedview
     id="namedview7"
     pagecolor="#ffffff"
     bordercolor="#000000"
     borderopacity="0.25"
     inkscape:pageshadow="2"
     inkscape:pageopacity="0.0"
     inkscape:pagecheckerboard="0"
     inkscape:document-units="mm"
     showgrid="false"
     units="px"
     inkscape:zoom="2.8436027"
     inkscape:cx="117.8083"
     inkscape:cy="133.80913"
     inkscape:window-width="1920"
     inkscape:window-height="991"
     inkscape:window-x="-9"
     inkscape:window-y="-9"
     inkscape:window-maximized="1"
     inkscape:current-layer="layer2" />
  <defs
     id="defs2" />
  <g
     inkscape:groupmode="layer"
     id="layer2"
     inkscape:label="Dessin">
    <g
       id="g15204"
       transform="matrix(0.72888635,0,0,0.72888635,-31.569462,-50.436388)">
      <path
         style="opacity:1;fill:#bed780;fill-opacity:1;stroke:none;stroke-width:0.529167;stroke-linecap:round;stroke-linejoin:round;stroke-opacity:1;paint-order:fill markers stroke"
         d="m 83.321899,130.82143 c 3.282428,4.66839 0.558928,-11.74205 0.04652,-16.62364 0.284464,-1.90358 0.799533,-3.79095 2.000472,-5.33501 5.492776,-7.06214 12.406623,1.79549 12.514567,3.4267 -0.01881,6.47749 0.551984,8.73104 1.152616,11.89574 1.120166,5.90207 8.422106,-12.4516 11.642256,-17.63928 2.67182,2.18641 4.89544,3.30627 6.47716,5.91203 -8.37402,6.08422 -9.42776,30.12268 -7.73928,46.10858 0.19354,1.83235 -0.0869,2.39059 -1.51599,2.65246 -6.28649,1.15196 -18.440344,1.16349 -25.752204,0.26319 -1.467089,-0.18064 -1.707158,-0.79941 -1.757106,-2.35128 -0.232914,-7.23664 -0.150459,-10.75035 -0.671002,-22.01431 -0.126016,-2.72684 -4.12492,-9.59921 -9.202726,-14.70209 0.239063,-1.90205 1.930131,-3.23829 3.768994,-4.12346 2.326878,2.63341 8.786321,12.17566 9.035723,12.53037 z"
         id="path869"
         sodipodi:nodetypes="scscsccsssssccs" />
      <path
         style="opacity:1;fill:#26681c;fill-opacity:1;stroke:none;stroke-width:0.529167;stroke-linecap:round;stroke-linejoin:round;stroke-opacity:1;paint-order:fill markers stroke"
         d="m 48.958339,97.639382 c -15.5283,15.233768 5.644407,36.982638 17.764064,25.264448 5.490894,3.7101 20.998939,-1.39042 22.501148,-12.63222 11.875739,9.11692 18.843989,-0.93115 19.309239,-2.32647 26.90929,25.37397 38.78318,-20.478034 13.91615,-22.47743 C 121.03673,72.294212 101.66076,63.304091 89.602342,73.789317 80.668763,66.256662 64.969316,69.052008 60.537877,81.191176 54.073266,82.505158 46.835705,86.581579 48.958339,97.639382 Z"
         id="path5726"
         sodipodi:nodetypes="cccccccc" />
    </g>
  </g>
</svg>
