<?xml version="1.0" encoding="UTF-8" standalone="no"?>
<!-- Created with Inkscape (http://www.inkscape.org/) -->

<svg
   width="256"
   height="256"
   viewBox="0 0 67.733332 67.733336"
   version="1.1"
   id="svg1067"
   sodipodi:docname="chataigne.svg"
   inkscape:version="1.1.2 (b8e25be833, 2022-02-05)"
   xmlns:inkscape="http://www.inkscape.org/namespaces/inkscape"
   xmlns:sodipodi="http://sodipodi.sourceforge.net/DTD/sodipodi-0.dtd"
   xmlns="http://www.w3.org/2000/svg"
   xmlns:svg="http://www.w3.org/2000/svg">
  <sodipodi:namedview
     id="namedview31323"
     pagecolor="#ffffff"
     bordercolor="#000000"
     borderopacity="0.25"
     inkscape:pageshadow="2"
     inkscape:pageopacity="0.0"
     inkscape:pagecheckerboard="0"
     showgrid="false"
     inkscape:zoom="2"
     inkscape:cx="125.5"
     inkscape:cy="71.25"
     inkscape:window-width="1920"
     inkscape:window-height="991"
     inkscape:window-x="-9"
     inkscape:window-y="-9"
     inkscape:window-maximized="1"
     inkscape:current-layer="g24138" />
  <defs
     id="defs1064" />
  <g
     id="layer1"
     style="display:inline;opacity:0.298551" />
  <g
     id="layer2"
     style="display:inline">
    <g
       id="g24138"
       transform="matrix(0.32591416,0,0,0.32591416,-24.803671,-27.024775)">
      <g
         id="g35945"
         transform="matrix(4.0000001,0,0,4.0000001,-228.31477,-239.01793)">
        <path
           style="display:inline;opacity:1;fill:#9e3525;fill-opacity:1;stroke-width:0.529167;stroke-linecap:round;stroke-linejoin:round;paint-order:fill markers stroke"
           d="M 97.683631,94.981036 C 104.898,81.63574 115.46897,83.886944 121.34718,89.748145 c 4.80186,4.787962 3.72657,9.947747 6.71416,15.377865 -6.27948,2.22104 -10.29458,6.48967 -16.27451,6.3959 -7.56951,-0.11869 -16.62927,-6.21485 -14.103199,-16.540874 z"
           id="path3239"
           sodipodi:nodetypes="cscsc" />
        <path
           style="opacity:1;fill:#842c1f;fill-opacity:1;stroke:none;stroke-width:0.529167;stroke-linecap:round;stroke-linejoin:round;stroke-opacity:1;paint-order:fill markers stroke"
           d="m 122.56823,105.46032 c -5.99441,-0.67581 -16.32928,-3.89955 -19.71146,-8.731234 5.13213,3.811844 12.60232,7.055864 19.71146,8.731234 z"
           id="path23327" />
        <path
           style="opacity:1;fill:#842c1f;fill-opacity:1;stroke:none;stroke-width:0.529167;stroke-linecap:round;stroke-linejoin:round;stroke-opacity:1;paint-order:fill markers stroke"
           d="m 119.79011,107.64314 c -7.52847,3.87566 -14.29969,-1.78599 -16.27189,-3.57188 3.84192,-0.26595 6.58346,5.97703 16.27189,3.57188 z"
           id="path23698" />
        <path
           style="opacity:1;fill:#953223;fill-opacity:1;stroke-width:0.529167;stroke-linecap:round;stroke-linejoin:round;paint-order:fill markers stroke"
           d="m 97.880809,98.055392 c 0.202447,-0.761159 0.233835,-0.746539 1.044048,-1.40571 8.956513,3.358378 13.483863,8.618198 13.694533,14.849688 -0.48785,0.0214 -0.89153,0.0758 -1.0967,0.005 -1.84342,-7.62112 -7.92885,-12.049614 -13.641881,-13.448838 z"
           id="path7762"
           sodipodi:nodetypes="ccccc" />
        <path
           style="display:inline;fill:#cc784d;fill-opacity:1;stroke-width:0.529167;stroke-linecap:round;stroke-linejoin:round;paint-order:fill markers stroke"
           d="m 100.36539,95.037665 c 1.06351,-1.412151 0.83099,-2.43603 1.98729,-3.630069 0.95298,-0.984079 1.81763,-1.483458 2.1069,-2.438563 0.27082,-0.894162 0.70167,-2.275933 0.41325,-2.115824 -5.852297,3.568771 -6.913762,7.383157 -7.189199,8.127827 -0.992501,3.811783 1.13839,2.105955 2.681759,0.05663 z"
           id="path10962"
           sodipodi:nodetypes="sscccs" />
        <path
           style="display:inline;fill:#c86e41;fill-opacity:1;stroke-width:0.529167;stroke-linecap:round;stroke-linejoin:round;paint-order:fill markers stroke"
           d="m 97.459588,96.054258 c 1.263029,0.471901 0.602727,0.25077 1.465269,0.595424 -1.074277,0.866527 -1.169972,1.408991 -1.354859,0.148271 -0.02985,-0.203513 -0.252381,-0.06273 -0.11041,-0.743695 z"
           id="path7762-4"
           sodipodi:nodetypes="ccsc" />
        <path
           style="fill:#9e3525;fill-opacity:1;stroke-width:0.529167;stroke-linecap:round;stroke-linejoin:round;paint-order:fill markers stroke"
           d="m 90.92887,92.671912 c -2.653383,4.878967 -7.604867,4.857356 -11.475233,10.712218 -5.117809,7.53921 -3.97916,14.69753 0.777735,19.19896 3.028925,2.86626 10.41004,0.10742 15.829032,0.3606 7.682976,0.18487 12.731946,1.08481 15.336436,-5.52291 1.09098,-2.76787 1.23601,-6.06521 0.0159,-9.83634 C 108.78997,99.478177 95.916829,96.681112 90.92887,92.671912 Z"
           id="path1174" />
        <path
           style="fill:#cc784d;fill-opacity:1;stroke-width:0.529167;stroke-linecap:round;stroke-linejoin:round;paint-order:fill markers stroke"
           d="m 80.227342,122.58112 c 2.105508,-0.27437 3.06861,-1.3449 6.174964,-1.66008 2.66152,-0.27005 5.615425,0.37536 8.317619,0.59588 4.823418,0.39363 6.432855,-1.43712 9.045855,-2.39359 3.2515,-1.19019 6.48014,-0.78038 7.62803,-1.69869 -3.76446,11.71422 -22.056029,13.63503 -31.166468,5.15648 z"
           id="path1708" />
        <path
           style="opacity:1;fill:#842c1f;fill-opacity:1;stroke-width:0.529167;stroke-linecap:round;stroke-linejoin:round;paint-order:fill markers stroke"
           d="m 110.10168,114.91921 c 2.90615,-3.96784 -4.38162,-15.453458 -14.077046,-18.321959 8.891076,5.063359 14.808516,13.246789 14.077046,18.321959 z"
           id="path15586" />
        <path
           style="opacity:1;fill:#842c1f;fill-opacity:1;stroke-width:0.529167;stroke-linecap:round;stroke-linejoin:round;paint-order:fill markers stroke"
           d="m 105.48235,116.1815 c -0.76483,-6.91985 -6.270973,-15.25211 -10.879684,-18.781099 3.156081,2.892339 8.182104,13.270859 10.879684,18.781099 z"
           id="path15590" />
        <path
           style="opacity:1;fill:#842c1f;fill-opacity:1;stroke-width:0.529167;stroke-linecap:round;stroke-linejoin:round;paint-order:fill markers stroke"
           d="m 90.755514,97.19775 c -4.523194,5.57637 -9.151616,17.07209 -6.236262,22.34721 -0.247325,-11.03839 4.403163,-16.74266 6.236262,-22.34721 z"
           id="path15592" />
        <path
           style="opacity:1;fill:#842c1f;fill-opacity:1;stroke-width:0.529167;stroke-linecap:round;stroke-linejoin:round;paint-order:fill markers stroke"
           d="M 81.368357,120.92747 C 74.467869,112.96794 82.81764,100.51119 89.16818,96.275921 83.695309,102.2109 76.845445,110.15854 81.368357,120.92747 Z"
           id="path15594" />
        <path
           style="opacity:1;fill:#842c1f;fill-opacity:1;stroke:none;stroke-width:0.529167;stroke-linecap:round;stroke-linejoin:round;stroke-opacity:1;paint-order:fill markers stroke"
           d="m 90.995131,118.35766 c -0.897271,-4.81904 -1.220872,-8.69494 1.381845,-19.862126"
           id="path19112" />
        <path
           style="opacity:1;fill:#842c1f;fill-opacity:1;stroke:none;stroke-width:0.529167;stroke-linecap:round;stroke-linejoin:round;stroke-opacity:1;paint-order:fill markers stroke"
           d="m 94.541791,99.096923 c 2.20163,5.495557 3.768696,12.104107 4.300287,17.419997"
           id="path19114" />
        <path
           style="opacity:1;fill:#842c1f;fill-opacity:1;stroke:none;stroke-width:0.529167;stroke-linecap:round;stroke-linejoin:round;stroke-opacity:1;paint-order:fill markers stroke"
           d="m 108.41301,86.542627 c 7.15014,-0.920256 14.76813,5.463574 16.47033,13.890623 -2.65198,-6.765433 -10.2589,-14.352797 -16.47033,-13.890623 z"
           id="path21686" />
        <path
           style="opacity:1;fill:#842c1f;fill-opacity:1;stroke:none;stroke-width:0.529167;stroke-linecap:round;stroke-linejoin:round;stroke-opacity:1;paint-order:fill markers stroke"
           d="m 105.23802,88.923877 c 8.29639,-0.378725 17.55996,7.773719 19.04999,14.089053 -5.27337,-8.411876 -14.11379,-13.853888 -19.04999,-14.089053 z"
           id="path21892" />
        <path
           style="opacity:1;fill:#842c1f;fill-opacity:1;stroke:none;stroke-width:0.529167;stroke-linecap:round;stroke-linejoin:round;stroke-opacity:1;paint-order:fill markers stroke"
           d="m 105.37031,91.834293 c 1.59816,1.839259 9.92216,8.721647 18.9177,12.633847"
           id="path23086" />
      </g>
    </g>
  </g>
</svg>
