<?xml version="1.0" encoding="UTF-8" standalone="no"?>
<!-- Created with Inkscape (http://www.inkscape.org/) -->

<svg
   width="256"
   height="256"
   viewBox="0 0 67.733332 67.733335"
   version="1.1"
   id="svg5"
   inkscape:version="1.1.2 (b8e25be833, 2022-02-05)"
   sodipodi:docname="chou_vert.svg"
   xmlns:inkscape="http://www.inkscape.org/namespaces/inkscape"
   xmlns:sodipodi="http://sodipodi.sourceforge.net/DTD/sodipodi-0.dtd"
   xmlns="http://www.w3.org/2000/svg"
   xmlns:svg="http://www.w3.org/2000/svg">
  <sodipodi:namedview
     id="namedview7"
     pagecolor="#ffffff"
     bordercolor="#000000"
     borderopacity="0.25"
     inkscape:pageshadow="2"
     inkscape:pageopacity="0.0"
     inkscape:pagecheckerboard="0"
     inkscape:document-units="mm"
     showgrid="false"
     units="px"
     inkscape:zoom="2.8436027"
     inkscape:cx="141.36996"
     inkscape:cy="143.30413"
     inkscape:window-width="1920"
     inkscape:window-height="991"
     inkscape:window-x="-9"
     inkscape:window-y="-9"
     inkscape:window-maximized="1"
     inkscape:current-layer="g41591" />
  <defs
     id="defs2" />
  <g
     inkscape:groupmode="layer"
     id="layer2"
     inkscape:label="Dessin">
    <g
       id="g41591"
       transform="matrix(0.63751833,0,0,0.63751833,-33.45829,-59.327984)">
      <path
         style="fill:#b4cd65;fill-opacity:1;stroke:none;stroke-width:0.2;stroke-linecap:round;stroke-linejoin:round;stroke-miterlimit:4;stroke-dasharray:none;stroke-opacity:1;paint-order:fill markers stroke"
         d="m 111.84781,186.72005 c 6.11413,0.18463 14.43832,0.41976 19.78589,-1.49909 8.38199,-3.14117 13.70323,-6.65941 20.61091,-17.31766 6.57696,-10.14797 6.54565,-24.87115 1.05268,-35.85709 -10.90035,-21.8007 -39.171,-29.81466 -63.029528,-25.98817 -25.613724,4.108 -43.367506,33.07086 -34.212272,57.63452 4.489562,12.04558 14.562984,20.37652 28.159331,21.84322 9.618694,1.03762 19.083449,0.9358 27.632989,1.18427 z"
         id="path40692"
         sodipodi:nodetypes="ccsssssc" />
      <path
         style="fill:#f9fcb9;fill-opacity:1;stroke:none;stroke-width:0.2;stroke-linecap:round;stroke-linejoin:round;stroke-miterlimit:4;stroke-dasharray:none;stroke-opacity:1;paint-order:fill markers stroke"
         d="m 85.350127,186.49456 c 3.8472,0.81939 7.621738,1.01867 10.18106,-0.16927 h -4e-6 c 0.0043,0.56258 -0.0523,0.87412 -0.05164,1.34333 0.0011,0.7443 0.02327,1.05409 0.885387,1.09349 4.60398,0.21053 9.99284,0.003 14.92054,0.0407 0.66498,0.005 0.8958,-0.1 0.78724,-0.80507 -0.0872,-0.56648 -0.0807,-0.8121 -0.1435,-1.2031 -0.26497,-1.64933 -0.54613,-3.30664 -0.57533,-3.89053 -0.0342,-0.6835 0.057,-0.93598 0.71156,-1.02468 0.77121,-0.10451 2.66807,0.89015 4.86968,0.61495 2.59547,-0.32444 3.69066,-2.7399 6.45769,-3.0047 3.93991,-0.37704 6.82423,2.37654 12.12312,-0.69454 8.74355,-5.06751 10.00043,-8.62265 14.76691,-20.25173 1.25403,-3.05954 3.96079,-12.44351 1.53091,-17.53209 -2.53124,-5.30083 -4.93704,-5.39727 -4.23258,-4.71185 0.50846,0.49471 4.80503,5.68812 3.82677,10.98434 -1.99199,10.78446 -4.14642,24.24808 -18.35344,29.04233 -3.07508,1.0377 -5.22563,-0.2525 -8.56756,0.31204 -1.10078,0.18595 -5.35401,2.53251 -7.44854,2.91948 -2.13377,0.39419 -4.57176,-0.3462 -6.18239,0.34679 -0.59838,0.25745 -0.66771,-0.38569 -0.71141,-0.9096 -0.13155,-1.57846 -0.19734,-3.66214 -0.51711,-4.96464 -0.20804,-0.84738 0.1739,-0.99538 0.68523,-1.2141 1.42375,-0.60901 2.99226,-1.88891 4.74863,-2.76201 2.18759,-1.08746 4.63034,-1.45739 7.0257,-2.33386 3.42945,-1.25484 6.21582,-2.95859 7.38465,-3.93261 1.59955,-1.33296 3.70519,-3.23462 4.68144,-5.02443 0.22421,-0.41106 1.25437,-2.6852 2.24844,-4.14924 1.24151,-1.82846 3.21825,-3.8406 3.42167,-4.51428 0.80637,-2.6704 -3.53107,2.69524 -4.11462,3.39751 -2.30834,2.77795 -3.60643,6.37743 -6.99435,7.54795 -1.36234,0.47068 -4.02286,2.73261 -6.31725,3.8638 -1.161,0.57241 -2.83019,-0.16552 -4.7472,0.27247 -2.83166,0.64697 -5.92956,1.63963 -7.66095,2.16797 -0.50831,0.15511 -0.90693,0.0325 -1.05426,-0.49669 -0.22603,-0.81192 -0.55204,-2.26048 -0.69634,-3.40488 -0.0671,-0.53226 0.0681,-0.67043 0.62169,-0.90364 2.51599,-1.05999 5.5375,-1.38543 7.09513,-2.59366 1.37157,-1.06389 1.97399,-3.45803 3.0689,-4.76295 1.27351,-1.51778 2.95196,-2.73021 3.59767,-5.75549 0.5985,-2.80406 1.34987,-7.93342 0.7375,-11.60117 -0.28254,-1.69223 -1.17905,-2.74966 -1.93531,-3.70354 -0.26865,-0.33885 -2.90898,-6.05631 -2.5672,-3.37123 0.12583,0.98858 0.5269,3.0561 1.5373,5.28305 0.4063,0.89551 1.25119,1.34536 1.49557,2.34253 0.33905,1.38348 0.1436,3.3053 -0.18419,4.49705 -0.84892,3.08649 -0.83822,5.38628 -2.42239,7.40859 -0.94672,1.20855 -2.63531,1.89793 -3.81398,3.79537 -0.50978,0.82066 -1.38898,2.11565 -2.59551,2.67286 -1.61092,0.74396 -3.75191,0.561 -5.77146,-0.0233 -0.26265,-0.076 -0.35501,-0.17761 -0.0659,-0.54763 0.40635,-0.5201 0.72325,-1.17879 1.24874,-1.63362 4.30123,-3.72288 2.67326,-13.9591 1.40033,-16.39033 -0.83426,-1.59339 -1.36913,-4.58432 -2.763,-5.7269 -0.51595,-0.42293 -0.74483,-0.50326 -0.40312,0.32792 0.45104,1.09713 1.07277,3.40322 1.3998,5.76706 0.36533,2.64071 0.0924,5.47254 -0.0241,6.18362 -0.6249,3.81296 -0.33733,4.54923 -3.11934,5.5169 0.0876,-2.52524 0.41238,-4.56178 0.41538,-6.27852 0.002,-1.01613 -1.50642,-1.90904 -1.86419,-3.12702 -0.56779,-1.93294 0.83299,-4.27383 0.55497,-6.03334 -0.10516,-0.66553 -0.66069,0.23887 -1.02808,0.81094 -0.68994,1.07434 -1.34079,3.24323 -1.07902,7.17309 0.0631,0.94679 -0.39562,1.94462 -0.36562,3.05351 0.031,1.14711 -0.65737,4.21645 -0.92013,5.3238 -3.196183,0.57437 -5.585774,-2.37685 -7.665684,-5.45245 -1.057005,-1.56301 -2.54292,-2.91899 -2.991163,-4.68801 -0.444166,-1.75293 0.420027,-3.91457 0.607973,-5.44459 0.267674,-2.17906 0.861882,-4.41039 2.138864,-5.99162 2.375181,-2.94108 5.848539,-3.95851 5.118655,-4.33638 -1.246332,-0.64525 -3.063926,0.66661 -4.326758,1.34609 -2.603252,1.4007 -4.054939,5.06194 -5.217427,8.36463 -0.79778,2.26654 -1.782662,4.25816 -1.687022,5.52449 0.310366,4.10931 2.096033,6.03339 3.465245,8.28455 2.411137,3.96423 4.732555,8.39799 8.714271,8.81482 1.046855,0.10959 0.726176,0.75661 0.820416,1.62191 0.14263,1.30955 0.54926,3.48419 -0.0346,6.16194 -0.111041,0.50927 -0.232818,0.61119 -0.827421,0.63899 -1.922979,0.09 -4.683749,-0.75852 -7.30218,-1.71138 -1.578366,-0.57437 -3.467264,-0.68703 -4.868265,-1.5231 -1.600934,-0.95538 -2.292219,-3.00684 -3.389901,-3.887 -0.632412,-0.50709 -1.493084,-0.78394 -1.902572,-1.02364 -1.002769,-0.58697 -0.946853,0.10269 -0.669369,0.54644 0.580525,0.92837 1.892802,2.17837 2.427137,2.76554 2.51518,2.76387 6.42108,6.75536 9.960102,8.27214 1.049174,0.44966 1.542214,-0.17823 2.205279,-0.35521 0.360045,-0.0961 0.845747,0.21691 1.339809,0.30651 0.535944,0.0972 0.962934,0.38974 0.960334,0.95539 -0.0056,1.20039 0.709175,2.77668 -0.144118,4.7684 -0.146643,0.34232 -0.245558,0.38562 -0.665911,0.36032 -3.575496,-0.21488 -7.427978,-2.26129 -11.071708,-3.75977 -3.09782,-1.27397 -6.100466,-1.73314 -8.092435,-3.96206 -2.195553,-2.45671 -6.351628,-7.44371 -5.047698,-5.10585 0.799336,1.43316 2.85495,4.05056 4.838346,6.51315 0.870701,1.08107 2.302852,1.82435 3.563966,2.70435 4.400893,3.07093 10.269838,5.84311 15.077768,6.33521 0.446934,0.0457 0.679908,0.0714 0.723758,0.62136 0.08427,1.05678 0.01314,2.2795 -0.04618,3.55578 -0.02739,0.58927 -0.112241,0.81917 -0.765052,0.93386 -2.484129,0.43643 -5.005089,1.12686 -8.354723,0.50973 -1.079528,-0.19889 -2.216179,-1.44762 -3.374913,-1.76886 -1.345241,-0.37295 -3.545003,0.0452 -4.940713,-0.33765 -4.142928,-1.13644 -7.378943,-3.15295 -9.280995,-4.73799 -5.59707,-4.66422 -10.67914,-10.20938 -13.788124,-16.77574 1.586543,9.80958 8.556554,18.934 29.354416,26.2985 z"
         id="path6479"
         sodipodi:nodetypes="csssssssssssssssssssssssssssssssssssssscsssssscssssssssssssssssssssssssssssssssssssssssssssssssssssssscccc" />
      <path
         style="fill:#728f27;fill-opacity:1;stroke:none;stroke-width:0.499999;stroke-linecap:round;stroke-linejoin:round;stroke-miterlimit:4;stroke-dasharray:none;stroke-opacity:1;paint-order:fill markers stroke"
         d="m 152.78351,164.62094 c 2.242,-4.64007 4.75873,-9.44429 3.9975,-16.21398 -2.27431,-20.22578 -9.74187,-27.25442 -28.28571,-36.56673 -20.12914,-10.10841 -55.507437,-7.0414 -68.295113,15.44548 -2.146283,3.7742 -3.14625,7.87954 -4.176226,12.047 -6.077317,24.58989 8.144529,40.24762 29.326166,47.16185 -8.55947,-1.61102 -18.42042,-7.22489 -21.925838,-10.43295 -11.959781,-10.94527 -14.461099,-36.23635 -5.78977,-49.60779 18.413195,-28.393689 61.627771,-26.39043 79.091861,-15.56726 7.22772,4.4793 14.42652,15.0977 17.88677,22.5413 6.8713,14.78138 4.478,24.43096 -2.33564,36.84399 -3.98188,7.25416 -12.19378,12.49211 -20.64381,14.94911 9.99223,-5.67192 16.811,-11.62032 21.14981,-20.60002 z"
         id="path5171"
         sodipodi:nodetypes="ssssscssssscs" />
      <path
         style="fill:#f9fcb9;fill-opacity:1;stroke:none;stroke-width:0.2;stroke-linecap:round;stroke-linejoin:round;stroke-miterlimit:4;stroke-dasharray:none;stroke-opacity:1;paint-order:fill markers stroke"
         d="m 67.503444,121.84832 c -3.733395,4.27245 6.170544,-3.80391 10.000509,-5.78977 5.133634,-2.66182 11.070186,-4.30145 16.842965,-4.21074 9.813632,0.15421 6.608652,-0.56039 -0.921102,-1.41455 -8.005479,-0.90811 -20.905117,5.67338 -25.922372,11.41506 z"
         id="path32676"
         sodipodi:nodetypes="sssss" />
      <path
         style="fill:#f9fcb9;fill-opacity:1;stroke:none;stroke-width:0.2;stroke-linecap:round;stroke-linejoin:round;stroke-miterlimit:4;stroke-dasharray:none;stroke-opacity:1;paint-order:fill markers stroke"
         d="m 71.829321,122.9339 c 1.446969,-1.81094 -8.296611,2.64515 -10.115648,6.28322 -0.950951,1.9019 2.018855,4.22965 1.184272,6.31611 -0.988795,2.47199 -4.167584,3.2486 -4.868669,6.05294 -0.578435,2.31374 2.994952,3.33241 3.552812,5.65818 1.097767,4.57669 2.759717,8.72703 1.184271,10.32948 -1.479888,1.50526 -0.98016,3.84965 -0.592135,5.78977 1.529858,7.64929 17.832211,15.47259 24.466709,15.37084 2.536946,-0.0389 -3.369566,-1.80255 -6.242094,-3.46234 -2.655213,-1.53422 -19.282941,-8.83228 -16.250831,-13.29016 1.113286,-1.63678 1.925789,-8.62053 -0.875571,-14.17039 -1.477595,-2.92731 -2.563005,-4.42802 -1.95352,-6.35697 0.648239,-2.05159 3.40964,-3.65736 4.210741,-5.5266 0.722473,-1.68577 -0.16185,-3.71397 0.131585,-5.52659 0.662505,-4.09246 3.779986,-4.47869 6.168078,-7.46749 z"
         id="path32678"
         sodipodi:nodetypes="sssssssssssssss" />
      <path
         style="fill:#f9fcb9;fill-opacity:1;stroke:none;stroke-width:0.2;stroke-linecap:round;stroke-linejoin:round;stroke-miterlimit:4;stroke-dasharray:none;stroke-opacity:1;paint-order:fill markers stroke"
         d="m 86.188607,118.42709 c 4.726609,-3.98789 -12.522478,6.25565 -15.79028,11.9743 -1.47715,2.58501 -3.915198,11.98134 -2.631713,14.86918 2.868327,6.45374 5.66887,5.59234 6.974041,13.55332 0.3305,2.01591 6.787029,9.68943 6.052939,6.84245 -0.116122,-0.45035 -3.23774,-5.29121 -3.552811,-5.92135 -1.40081,-2.80162 -0.867927,-5.24059 -2.500128,-7.96093 -1.343531,-2.23922 -3.020885,-3.57559 -4.079155,-5.98715 -2.62427,-5.98011 -0.933241,-12.50363 3.060413,-17.37437 3.681037,-4.48947 9.456877,-7.45603 12.466694,-9.99545 z"
         id="path32680"
         sodipodi:nodetypes="ssssssssss" />
      <path
         style="fill:#f9fcb9;fill-opacity:1;stroke:none;stroke-width:0.2;stroke-linecap:round;stroke-linejoin:round;stroke-miterlimit:4;stroke-dasharray:none;stroke-opacity:1;paint-order:fill markers stroke"
         d="m 100.39986,119.74295 c -2.17106,0.58499 -14.854446,1.53164 -16.217935,9.1781 -0.27859,1.56234 0.873466,3.02077 0.427654,4.50681 -0.775946,2.58649 -4.564615,3.04948 -4.079155,6.44769 0.246763,1.72736 0.150919,4.47039 0.09869,6.05294 -0.09628,2.91733 3.63553,2.97911 4.112051,3.15806 1.159901,0.43559 -0.311701,2.86922 0.789513,3.75019 0.774425,0.61954 2.100435,0.87086 2.829094,1.71061 1.406339,1.62075 3.770414,8.24443 1.282959,4.96737 -0.704759,-0.92848 -0.974096,-2.98992 -1.842199,-3.6844 -0.836663,-0.66933 -2.388614,-0.71154 -3.648017,-2.23415 -0.510254,-0.6169 -0.401331,-2.73406 -1.060931,-3.28663 -1.907073,-1.59762 -4.308985,-2.56077 -4.173085,-4.24946 0.177294,-2.20309 -0.52695,-4.66542 -0.293328,-7.20479 0.188794,-2.05211 2.641607,-3.45295 3.423972,-5.19235 0.884363,-1.96616 0.345144,-3.473 0.704975,-5.40399 0.574503,-3.08301 3.953467,-6.36182 8.263586,-7.81212 5.697232,-1.91705 12.128516,-1.44388 9.382156,-0.70388 z"
         id="path32682"
         sodipodi:nodetypes="ssssssssssssssssss" />
      <path
         style="fill:#f9fcb9;fill-opacity:1;stroke:none;stroke-width:0.2;stroke-linecap:round;stroke-linejoin:round;stroke-miterlimit:4;stroke-dasharray:none;stroke-opacity:1;paint-order:fill markers stroke"
         d="m 97.636559,141.58617 c -0.943242,-3.01867 1.928918,-3.56576 3.026471,-5.39501 1.91781,-3.19635 -3.887055,-2.81326 -3.289641,-4.6055 0.647043,-1.94114 2.724891,-0.86349 3.552811,-2.10537 0.91864,-1.37796 0.83943,-3.19133 2.36854,-4.21074 1.52158,-1.01439 6.31541,2.76541 6.97404,0.78951 0.45752,-1.37254 -5.34787,-2.60618 -6.44769,-2.7633 -1.03228,-0.14747 -2.90706,-0.11941 -3.6844,0.65793 -0.789999,0.78999 0.007,2.22639 -0.526347,3.02647 -1.153978,1.73097 -5.808181,3.10012 -6.31611,5.13184 -0.68571,2.74284 2.174137,1.84815 2.894883,3.28964 1.46485,2.9297 -2.697456,3.59397 1.447443,6.18453 z"
         id="path32684" />
      <path
         style="fill:#f9fcb9;fill-opacity:1;stroke:none;stroke-width:0.2;stroke-linecap:round;stroke-linejoin:round;stroke-miterlimit:4;stroke-dasharray:none;stroke-opacity:1;paint-order:fill markers stroke"
         d="m 105.40011,115.53221 c 6.12163,-4.20701 22.25504,0.61697 22.10639,4.86867 -0.0324,0.92621 -3.99544,-3.00827 -9.88647,-4.3428 -6.25765,-1.41757 -14.0316,0.71918 -12.21992,-0.52587 z"
         id="path32686"
         sodipodi:nodetypes="ssss" />
      <path
         style="fill:#f9fcb9;fill-opacity:1;stroke:none;stroke-width:0.2;stroke-linecap:round;stroke-linejoin:round;stroke-miterlimit:4;stroke-dasharray:none;stroke-opacity:1;paint-order:fill markers stroke"
         d="m 114.31504,146.42194 c 0.73033,-4.99773 -1.29969,-18.6175 -3.58571,-23.19197 -0.81372,-1.62831 -5.85747,-4.31543 -3.48702,-4.14495 8.12091,0.58405 9.37965,19.18017 9.37548,22.69853 -0.003,2.85075 -2.87683,8.56689 -2.30275,4.63839 z"
         id="path32688"
         sodipodi:nodetypes="sssss" />
      <path
         style="fill:#f9fcb9;fill-opacity:1;stroke:none;stroke-width:0.2;stroke-linecap:round;stroke-linejoin:round;stroke-miterlimit:4;stroke-dasharray:none;stroke-opacity:1;paint-order:fill markers stroke"
         d="m 118.29551,121.71673 c 2.41263,2.27245 5.44283,2.83706 6.20031,4.04466 1.42571,2.2729 -0.82321,4.22136 0.37897,5.82427 1.10018,1.46691 2.87648,1.95078 3.94757,3.28964 2.35685,2.94606 -1.40216,9.94669 -1.8422,13.02698 -0.26559,1.85911 0.26522,3.97062 -0.78951,5.65818 -1.19326,1.90921 -9.07941,5.99652 -9.07941,8.2899 0,0.96019 9.80585,-6.45071 10.39526,-7.10562 3.21461,-3.57179 1.22971,-6.49787 2.23696,-10.52686 0.72975,-2.919 3.24254,-4.52924 3.55281,-7.63197 0.2928,-2.92799 -2.70296,-3.75564 -4.47391,-5.52659 -2.33375,-2.33375 0.61456,-4.94129 -1.44744,-7.23722 -1.6638,-1.85255 -12.62729,-5.44712 -9.07941,-2.10537 z"
         id="path32690"
         sodipodi:nodetypes="sssssssssssss" />
      <path
         style="fill:#f9fcb9;fill-opacity:1;stroke:none;stroke-width:0.2;stroke-linecap:round;stroke-linejoin:round;stroke-miterlimit:4;stroke-dasharray:none;stroke-opacity:1;paint-order:fill markers stroke"
         d="m 131.1909,122.76942 c 1.66109,4.16722 3.55213,6.11675 3.8601,7.83921 0.43827,2.45123 -1.04171,4.03719 0.0875,7.42473 0.91225,2.73676 3.12322,1.9375 1.14642,5.23218 -2.37317,3.95527 -6.23484,10.6399 -4.73708,9.21099 2.12837,-2.03053 5.95045,-5.69481 7.23237,-10.74032 0.54906,-2.16104 -1.70306,-3.58677 -1.44127,-5.80922 0.21112,-1.79236 0.0931,-4.89691 -0.7257,-7.03955 -2.22606,-5.825 -7.10461,-10.33844 -5.42231,-6.11802 z"
         id="path32692"
         sodipodi:nodetypes="sssssssss" />
      <path
         style="fill:#f9fcb9;fill-opacity:1;stroke:none;stroke-width:0.2;stroke-linecap:round;stroke-linejoin:round;stroke-miterlimit:4;stroke-dasharray:none;stroke-opacity:1;paint-order:fill markers stroke"
         d="m 138.42811,122.76942 c 3.4041,4.83591 12.17392,6.4109 8.15831,4.07915 -1.65557,-0.96134 -10.15785,-6.91973 -8.15831,-4.07915 z"
         id="path32694"
         sodipodi:nodetypes="sss" />
      <path
         style="fill:#f9fcb9;fill-opacity:1;stroke:none;stroke-width:0.2;stroke-linecap:round;stroke-linejoin:round;stroke-miterlimit:4;stroke-dasharray:none;stroke-opacity:1;paint-order:fill markers stroke"
         d="m 141.98093,132.63834 c 0.61715,3.31038 2.39512,5.87318 3.16326,12.5432 0.70843,6.1515 -0.52352,13.10396 -0.79472,13.51077 -1.69953,2.54932 -4.74575,0.013 -6.05294,1.97378 -1.57686,2.36528 -0.18205,3.96814 -2.81644,5.94393 -1.55251,1.16438 -3.06215,-0.85971 -5.21029,0.2406 -2.11044,1.081 -1.00893,2.36844 -3.32157,3.5462 -3.86896,1.97034 -17.17614,5.00613 -11.54761,5.40162 2.75398,0.19351 5.09911,-1.23936 7.89514,-1.71061 1.58005,-0.26631 4.80247,-3.1998 8.17335,-4.61747 2.15821,-0.90767 3.94253,0.41317 5.42763,-0.76683 0.83454,-0.66307 2.28506,-5.22218 2.82853,-5.90151 1.87245,-2.34057 5.84208,-0.41529 7.08441,-3.72819 0.65432,-1.74485 0.73878,-12.61782 0.43467,-15.38229 -0.61278,-5.57045 -6.22381,-16.2047 -5.26342,-11.0532 z"
         id="path32696"
         sodipodi:nodetypes="sssssssssssssss" />
    </g>
  </g>
</svg>
