<svg width="256" height="256" viewBox="0 0 256 256" fill="none" xmlns="http://www.w3.org/2000/svg">
<path d="M0.146003 133.429C-0.153284 137.406 -0.162006 145.783 1.80871 154.893C6.32125 164.711 40.9508 178.231 52.3012 170.348C54.4964 165.674 55.2168 159.778 55.2313 154.965C34.915 157.849 6.29887 145.869 0.146003 133.429Z" fill="#87C352"/>
<path d="M145.126 150.225C142.821 153.189 140.509 156.145 137.734 158.505C173.85 151.644 261.924 123.958 255.685 74.1208C247.725 10.5414 141.551 60.9713 96.2478 75.0068" fill="#87C352"/>
<path d="M137.734 158.505L145.126 150.225C147.056 145.191 148.764 140.09 150.008 134.851C150.137 128.769 150.616 123.329 150.372 116.563C147.905 110.376 145.863 104.119 142.649 98.0563C139.625 93.505 136.886 88.9742 132.958 84.3584C129.029 81.5152 125.038 78.6925 120.499 76.0523C116.092 74.9365 111.244 74.1349 106.364 73.3564C101.832 73.8639 97.0823 74.8839 92.6663 75.7609C89.6042 78.1776 86.7656 80.0355 83.3548 83.3237C81.1685 86.9506 80.2162 90.166 78.8228 93.5285C77.9426 97.0083 77.5631 101.865 77.044 106.338C77.0302 111.13 77.4878 115.451 77.9485 119.769L84.6786 135.48" fill="#E8F6C1"/>
<path d="M106.189 71.7989C101.547 72.3187 96.7587 73.351 92.3598 74.2245C92.1175 74.2727 91.8901 74.3775 91.696 74.5304C88.6969 76.8974 85.7797 78.8109 82.2686 82.1959C82.1705 82.2905 82.0851 82.3974 82.0147 82.5141C79.7209 86.3192 78.7292 89.6601 77.3744 92.9295C77.3458 92.9991 77.3223 93.0707 77.3041 93.1436C76.3651 96.8555 76.0013 101.728 75.4871 106.159C75.4808 106.217 75.4777 106.275 75.4778 106.333C75.4638 111.228 75.9317 115.618 76.3925 119.936C76.4086 120.091 76.4478 120.243 76.5087 120.386L83.2382 136.096C83.4018 136.478 83.7102 136.779 84.0956 136.933C84.4811 137.087 84.912 137.082 85.2938 136.919C85.483 136.838 85.6544 136.721 85.7984 136.574C85.9423 136.427 86.0558 136.253 86.1325 136.062C86.2092 135.871 86.2476 135.667 86.2454 135.462C86.2431 135.256 86.2004 135.053 86.1196 134.864L79.4941 119.401C79.0436 115.175 78.608 111.004 78.6162 106.416C79.1308 101.959 79.5272 97.205 80.3323 93.9848C81.705 90.6483 82.6457 87.6315 84.6208 84.3035C87.739 81.3288 90.3973 79.5311 93.3386 77.2314C97.6028 76.3811 102.098 75.435 106.345 74.9464C111.062 75.7 115.705 76.479 119.899 77.5281C124.219 80.056 128.063 82.7611 131.871 85.5148C135.613 89.9386 138.291 94.3194 141.28 98.8239C144.354 104.631 146.371 110.712 148.805 116.847C149.022 123.32 148.579 128.63 148.444 134.613C147.243 139.637 145.6 144.552 143.74 149.427L136.566 157.462C136.429 157.616 136.324 157.795 136.256 157.989C136.188 158.183 136.159 158.389 136.171 158.594C136.183 158.8 136.235 159.001 136.324 159.186C136.413 159.371 136.538 159.537 136.692 159.674C137.002 159.95 137.408 160.091 137.822 160.068C138.236 160.044 138.624 159.858 138.9 159.549L146.294 151.268C146.42 151.126 146.52 150.962 146.587 150.785C148.533 145.709 150.264 140.543 151.53 135.212C151.556 135.105 151.571 134.995 151.573 134.885C151.701 128.865 152.185 123.377 151.937 116.507C151.931 116.328 151.894 116.151 151.827 115.984C149.384 109.859 147.327 103.536 144.033 97.322C144.009 97.2769 143.982 97.233 143.954 97.1905C140.953 92.6753 138.172 88.0702 134.15 83.343C134.07 83.2478 133.978 83.1626 133.878 83.0891C129.939 80.2393 125.9 77.3821 121.287 74.6986C121.161 74.625 121.025 74.5694 120.884 74.5335C116.384 73.3944 111.497 72.5905 106.611 71.8111C106.472 71.788 106.33 71.7839 106.189 71.7989Z" fill="#87C352"/>
<mask id="mask0_2326_2" style="mask-type:luminance" maskUnits="userSpaceOnUse" x="96" y="42" width="161" height="117">
<path d="M145.126 150.225C142.821 153.189 140.509 156.145 137.734 158.505C173.85 151.644 261.925 123.958 255.685 74.1208C247.725 10.5414 141.551 60.9713 96.248 75.0068" fill="#87C352"/>
</mask>
<g mask="url(#mask0_2326_2)">
<path d="M246.815 52.3051C208.084 52.3051 155.689 63.6741 120.324 75.5338C120.037 75.6299 119.882 75.9409 119.978 76.2281C120.076 76.5142 120.386 76.6675 120.673 76.5707C155.932 64.7466 208.295 53.4032 246.815 53.4032C247.118 53.4029 247.364 53.1561 247.362 52.8526C247.362 52.5504 247.117 52.3054 246.815 52.3051Z" fill="#477026"/>
<path d="M249.006 54.9576C212.333 59.8698 167.145 69.2445 132.743 83.8539C132.464 83.9721 132.334 84.294 132.452 84.5727C132.571 84.8515 132.892 84.9816 133.171 84.8633C167.41 70.3231 212.536 60.9477 249.149 56.0435C249.449 56.0035 249.66 55.7284 249.62 55.4286C249.58 55.1289 249.305 54.9181 249.006 54.9576Z" fill="#477026"/>
<path d="M248.899 54.9668C248.757 54.9338 248.607 54.9591 248.483 55.0371C222.312 71.3788 176.315 83.1047 142.434 97.5515C142.156 97.6708 142.027 97.9924 142.146 98.2703C142.264 98.5491 142.586 98.6792 142.865 98.5609C176.611 84.1718 222.604 72.4891 249.064 55.967C249.321 55.8066 249.399 55.4682 249.239 55.2115C249.162 55.0882 249.04 55.0002 248.899 54.9668Z" fill="#477026"/>
<path d="M252.053 59.2819C251.769 59.1774 251.454 59.3225 251.349 59.6061C249.309 65.1586 242.048 72.7122 232.896 78.7731C223.744 84.834 212.215 90.7972 200.68 96.1138C177.61 106.747 154.436 114.825 150.221 116.036C149.93 116.12 149.761 116.424 149.845 116.715C149.93 117.006 150.234 117.173 150.524 117.088C154.952 115.816 178.008 107.769 201.139 97.1079C212.705 91.7771 224.273 85.7997 233.502 79.6877C242.731 73.5756 250.165 66.0134 252.38 59.9854C252.484 59.7008 252.338 59.3856 252.053 59.2819Z" fill="#477026"/>
<path d="M256.648 74.0726C256.345 74.0574 256.06 73.9442 255.88 74.1888C231.514 107.304 185.771 120.381 149.808 134.34C149.526 134.45 149.387 134.768 149.496 135.05C149.606 135.332 149.924 135.472 150.206 135.362C186.072 121.441 232.092 108.371 256.764 74.8403C256.945 74.5964 256.951 74.0877 256.648 74.0726Z" fill="#477026"/>
<path d="M250.64 100.03C250.495 100.015 250.345 99.9735 250.232 100.065C219.016 125.378 182.242 140.724 144.997 149.693C144.703 149.764 144.522 150.06 144.593 150.354C144.664 150.647 144.96 150.828 145.254 150.757C182.605 141.763 219.277 126.535 250.649 101.096C250.884 100.906 250.921 100.561 250.731 100.325C250.55 100.07 250.665 100.262 250.64 100.03Z" fill="#477026"/>
<path d="M224.096 47.8908C184.253 47.6126 145.666 59.654 106.192 72.8358C105.903 72.9307 105.747 73.2421 105.843 73.5302C105.939 73.8175 106.25 73.9723 106.538 73.8758C151.635 58.816 197.136 45.2746 242.849 49.8485C243.15 49.8784 243.418 49.6596 243.449 49.3591C243.479 49.0575 243.258 48.7889 242.956 48.7596C237.207 48.1843 229.788 47.9305 224.096 47.8908Z" fill="#477026"/>
</g>
<path d="M57.7218 140.608C55.1189 151.773 49.5191 165.383 52.1547 183.094C52.7173 186.875 62.1692 199.647 65.1935 201.846C70.8128 205.933 79.8445 211.902 86.876 212.541C93.5263 213.146 116.419 214.652 125.645 209.839C140.185 202.254 148.423 187.759 150.605 172.545" fill="#87C352"/>
<mask id="mask1_2326_2" style="mask-type:luminance" maskUnits="userSpaceOnUse" x="0" y="133" width="56" height="40">
<path d="M0.146003 133.429C-0.153284 137.406 -0.162006 145.783 1.80871 154.893C6.32125 164.711 40.9508 178.231 52.3012 170.348C54.4964 165.674 55.2168 159.778 55.2313 154.965C34.915 157.849 6.29887 145.869 0.146003 133.429Z" fill="#87C352"/>
</mask>
<g mask="url(#mask1_2326_2)">
<path d="M16.3927 146.346C16.311 146.337 16.2282 146.344 16.149 146.366C16.0699 146.389 15.996 146.427 15.9315 146.478C15.867 146.529 15.8132 146.592 15.7732 146.664C15.7332 146.736 15.7078 146.815 15.6984 146.897C15.0558 152.477 14.8086 161.584 14.6828 165.935C14.6785 166.101 14.7402 166.262 14.8543 166.383C14.9685 166.503 15.1257 166.573 15.2915 166.578C15.4569 166.582 15.6172 166.521 15.7375 166.407C15.8579 166.294 15.9285 166.137 15.9339 165.972C16.0597 161.619 16.3144 152.503 16.9433 147.041C16.9528 146.959 16.9461 146.876 16.9235 146.797C16.9009 146.718 16.863 146.644 16.8119 146.58C16.7608 146.515 16.6974 146.461 16.6255 146.421C16.5536 146.381 16.4745 146.356 16.3927 146.346Z" fill="#5B8A34"/>
</g>
<mask id="mask2_2326_2" style="mask-type:luminance" maskUnits="userSpaceOnUse" x="0" y="133" width="56" height="40">
<path d="M0.146003 133.429C-0.153284 137.406 -0.162006 145.783 1.80871 154.893C6.32125 164.711 40.9508 178.231 52.3012 170.348C54.4964 165.674 55.2168 159.778 55.2313 154.965C34.915 157.849 6.29887 145.869 0.146003 133.429Z" fill="#87C352"/>
</mask>
<g mask="url(#mask2_2326_2)">
<path d="M36.93 153.033C36.8478 153.039 36.7675 153.06 36.6937 153.096C36.6198 153.133 36.5539 153.184 36.4996 153.245C36.4453 153.307 36.4038 153.379 36.3774 153.457C36.351 153.535 36.3402 153.618 36.3457 153.7C36.709 159.39 36.0803 167.883 36.0001 173.194C35.9975 173.36 36.0607 173.52 36.176 173.639C36.2912 173.759 36.4491 173.827 36.6149 173.83C36.7808 173.833 36.9409 173.77 37.0601 173.655C37.1794 173.539 37.2481 173.381 37.2512 173.216C37.3302 167.985 37.9708 159.48 37.5968 153.62C37.5918 153.538 37.5706 153.457 37.5343 153.383C37.4981 153.309 37.4475 153.243 37.3855 153.188C37.3236 153.134 37.2514 153.092 37.1732 153.065C37.095 153.039 37.0124 153.028 36.93 153.033Z" fill="#5B8A34"/>
</g>
<path d="M53.6199 156.284C48.4186 157.038 40.6731 156.738 33.9884 155.698C26.9893 154.783 21.6241 153.58 16.115 151.009C11.4204 147.483 6.66394 144.329 2.34368 138.557C1.45418 134.741 1.10783 130.538 2.92969 124.785C5.44703 121.299 7.43717 118.41 12.7454 114.677C16.5306 111.902 16.7758 110.416 30.7654 106.912C37.0747 104.837 42.3226 104.924 47.4667 104.275C52.7766 103.855 55.1012 104.31 63.7286 105.886C69.6843 106.559 73.1486 108.477 76.8407 110.282C81.6061 116.369 83.4183 123.335 84.6786 129.473" fill="#E8F6C1"/>
<path d="M47.3425 102.715C47.3179 102.716 47.2935 102.718 47.269 102.721C42.2762 103.351 36.8483 103.266 30.2862 105.422C30.2828 105.423 30.2804 105.424 30.277 105.425C23.3451 107.167 19.6651 108.433 17.2217 109.671C14.7699 110.913 13.6279 112.086 11.8443 113.397C11.8407 113.4 11.8388 113.4 11.835 113.403C11.8297 113.406 11.825 113.411 11.8197 113.415C6.37347 117.252 4.16291 120.405 1.66117 123.871C1.56363 124.006 1.48825 124.155 1.43788 124.314C-0.467546 130.33 -0.109909 134.938 0.816928 138.914C0.866587 139.125 0.959279 139.322 1.08917 139.495C5.57582 145.49 10.5281 148.773 15.1752 152.263C15.2621 152.328 15.3554 152.383 15.4536 152.428C21.1352 155.079 26.6955 156.323 33.7487 157.246H33.7548C40.5744 158.307 48.3687 158.628 53.8454 157.833C54.2563 157.773 54.6265 157.553 54.8749 157.22C55.1233 156.888 55.2294 156.47 55.1699 156.059C55.1101 155.648 54.8897 155.278 54.557 155.03C54.2243 154.781 53.8066 154.675 53.3958 154.735C48.4716 155.449 40.7772 155.17 34.2289 154.15C34.2167 154.148 34.2045 154.146 34.1922 154.144C27.3134 153.245 22.1757 152.079 16.8882 149.629C12.2921 146.186 7.87366 143.159 3.8299 137.862C3.04519 134.356 2.78235 130.666 4.38967 125.461C6.81976 122.089 8.62721 119.487 13.6458 115.957C13.654 115.951 13.6622 115.945 13.6703 115.939C15.6573 114.482 16.5318 113.529 18.6348 112.464C20.7378 111.399 24.1994 110.172 31.1456 108.432C31.1827 108.423 31.2194 108.411 31.2557 108.399C37.2797 106.417 42.3237 106.494 47.59 105.835H47.6022C52.7772 105.428 54.8242 105.853 63.4472 107.429C63.4817 107.435 63.5163 107.441 63.5512 107.445C69.0548 108.066 72.203 109.757 75.7836 111.519C80.1593 117.24 81.9144 123.804 83.1432 129.79C83.1848 129.991 83.2656 130.183 83.3811 130.353C83.4966 130.523 83.6445 130.669 83.8164 130.782C83.9882 130.895 84.1806 130.973 84.3827 131.012C84.5847 131.05 84.7924 131.049 84.9938 131.007C85.4001 130.923 85.7564 130.682 85.9846 130.335C86.2129 129.989 86.2944 129.566 86.2113 129.16C84.9384 122.96 83.0788 115.709 78.0747 109.317C77.9279 109.13 77.7407 108.98 77.5271 108.876C73.8812 107.095 70.1212 105.033 63.903 104.331L64.01 104.346C55.3862 102.769 52.7767 102.285 47.3425 102.715Z" fill="#87C352"/>
<mask id="mask3_2326_2" style="mask-type:luminance" maskUnits="userSpaceOnUse" x="51" y="140" width="100" height="74">
<path d="M57.7218 140.608C55.1189 151.773 49.5191 165.383 52.1547 183.094C52.7173 186.875 62.1692 199.647 65.1935 201.846C70.8128 205.933 79.8445 211.902 86.876 212.541C93.5263 213.146 116.419 214.652 125.645 209.839C140.185 202.254 148.423 187.759 150.605 172.545" fill="#87C352"/>
</mask>
<g mask="url(#mask3_2326_2)">
<path d="M63.2453 176.635C63.1666 176.661 63.0936 176.701 63.0306 176.755C62.9676 176.808 62.9158 176.874 62.8783 176.947C60.942 180.701 57.7794 189.82 56.2956 193.529C56.2341 193.684 56.2362 193.856 56.3016 194.008C56.367 194.161 56.4903 194.281 56.6443 194.343C56.7208 194.374 56.8027 194.39 56.8852 194.389C56.9677 194.388 57.0492 194.371 57.1251 194.338C57.201 194.306 57.2698 194.259 57.3274 194.2C57.385 194.141 57.4305 194.071 57.461 193.994C58.9786 190.2 62.1833 181.025 63.9917 177.519C64.067 177.372 64.081 177.201 64.0306 177.043C63.9801 176.886 63.8694 176.754 63.7225 176.678C63.5754 176.601 63.4038 176.586 63.2453 176.635Z" fill="#5B8A34"/>
</g>
<mask id="mask4_2326_2" style="mask-type:luminance" maskUnits="userSpaceOnUse" x="51" y="140" width="100" height="74">
<path d="M57.7218 140.608C55.1189 151.773 49.5191 165.383 52.1547 183.094C52.7173 186.875 62.1692 199.647 65.1935 201.846C70.8128 205.933 79.8445 211.902 86.876 212.541C93.5263 213.146 116.419 214.652 125.645 209.839C140.185 202.254 148.423 187.759 150.605 172.545" fill="#87C352"/>
</mask>
<g mask="url(#mask4_2326_2)">
<path d="M78.6346 189.498C78.5714 189.445 78.4983 189.405 78.4197 189.38C78.341 189.356 78.2582 189.347 78.1761 189.354C78.0939 189.362 78.0141 189.385 77.9411 189.423C77.868 189.462 77.8033 189.514 77.7506 189.577C76.1045 191.543 75.0257 195.163 74.0861 198.87C73.1464 202.578 72.3946 206.373 71.7124 208.42C71.6864 208.498 71.6761 208.581 71.6821 208.663C71.688 208.745 71.7101 208.825 71.747 208.899C71.7839 208.972 71.835 209.038 71.8973 209.092C71.9596 209.145 72.0319 209.187 72.11 209.212C72.2674 209.265 72.4392 209.253 72.5878 209.179C72.7363 209.105 72.8494 208.975 72.9023 208.818C73.6421 206.598 74.372 202.839 75.3004 199.176C76.2288 195.513 77.4043 191.946 78.7141 190.382C78.7671 190.319 78.8071 190.246 78.8317 190.167C78.8564 190.088 78.8653 190.006 78.8579 189.923C78.8505 189.841 78.827 189.761 78.7887 189.688C78.7504 189.615 78.698 189.551 78.6346 189.498Z" fill="#5B8A34"/>
</g>
<mask id="mask5_2326_2" style="mask-type:luminance" maskUnits="userSpaceOnUse" x="51" y="140" width="100" height="74">
<path d="M57.7218 140.608C55.1189 151.773 49.5191 165.383 52.1547 183.094C52.7173 186.875 62.1692 199.647 65.1935 201.846C70.8128 205.933 79.8445 211.902 86.876 212.541C93.5263 213.146 116.419 214.652 125.645 209.839C140.185 202.254 148.423 187.759 150.605 172.545" fill="#87C352"/>
</mask>
<g mask="url(#mask5_2326_2)">
<path d="M99.0557 196.934C98.8958 196.89 98.7249 196.91 98.5804 196.992C98.4359 197.073 98.3296 197.209 98.2848 197.368C97.0112 201.898 96.1699 209.883 95.8224 214.4C95.8096 214.566 95.8629 214.729 95.9708 214.856C96.0786 214.982 96.2321 215.06 96.3975 215.073C96.4797 215.079 96.5623 215.069 96.6406 215.044C96.7189 215.018 96.7914 214.977 96.854 214.924C96.9165 214.87 96.9678 214.804 97.0049 214.731C97.0421 214.657 97.0643 214.577 97.0705 214.495C97.4146 210.021 98.2827 202.002 99.49 197.708C99.5125 197.629 99.519 197.546 99.5093 197.464C99.4996 197.382 99.4739 197.303 99.4335 197.231C99.3931 197.159 99.339 197.096 99.2742 197.045C99.2093 196.994 99.1351 196.956 99.0557 196.934Z" fill="#5B8A34"/>
</g>
<mask id="mask6_2326_2" style="mask-type:luminance" maskUnits="userSpaceOnUse" x="51" y="140" width="100" height="74">
<path d="M57.7218 140.608C55.1189 151.773 49.5191 165.383 52.1547 183.094C52.7173 186.875 62.1692 199.647 65.1935 201.846C70.8128 205.933 79.8445 211.902 86.876 212.541C93.5263 213.146 116.419 214.652 125.645 209.839C140.185 202.254 148.423 187.759 150.605 172.545" fill="#87C352"/>
</mask>
<g mask="url(#mask6_2326_2)">
<path d="M123.435 194.774C123.352 194.774 123.271 194.789 123.194 194.82C123.118 194.85 123.048 194.896 122.989 194.954C122.931 195.011 122.884 195.08 122.852 195.156C122.819 195.232 122.802 195.313 122.802 195.395C122.78 197.812 122.327 201.053 121.957 204.284C121.588 207.516 121.296 210.735 121.652 213.25C121.675 213.414 121.762 213.562 121.895 213.662C122.027 213.762 122.194 213.805 122.358 213.782C122.522 213.759 122.67 213.671 122.77 213.539C122.87 213.406 122.913 213.24 122.89 213.076C122.57 210.808 122.835 207.635 123.202 204.425C123.569 201.216 124.033 197.965 124.056 195.405C124.057 195.239 123.992 195.079 123.876 194.961C123.759 194.843 123.601 194.776 123.435 194.774Z" fill="#5B8A34"/>
</g>
<mask id="mask7_2326_2" style="mask-type:luminance" maskUnits="userSpaceOnUse" x="51" y="140" width="100" height="74">
<path d="M57.7218 140.608C55.1189 151.773 49.5191 165.383 52.1547 183.094C52.7173 186.875 62.1692 199.647 65.1935 201.846C70.8128 205.933 79.8445 211.902 86.876 212.541C93.5263 213.146 116.419 214.652 125.645 209.839C140.185 202.254 148.423 187.759 150.605 172.545" fill="#87C352"/>
</mask>
<g mask="url(#mask7_2326_2)">
<path d="M140.901 187.448C140.819 187.443 140.736 187.455 140.658 187.482C140.58 187.509 140.508 187.551 140.446 187.606C140.385 187.66 140.334 187.727 140.298 187.801C140.263 187.876 140.242 187.956 140.237 188.039C140.173 189.112 139.839 191.349 139.512 193.618C139.186 195.887 138.864 198.19 138.833 199.604C138.83 199.77 138.892 199.931 139.007 200.05C139.122 200.17 139.279 200.24 139.445 200.244C139.527 200.246 139.609 200.232 139.686 200.202C139.763 200.172 139.833 200.128 139.893 200.071C139.953 200.014 140.001 199.946 140.034 199.871C140.067 199.795 140.085 199.714 140.087 199.632C140.115 198.384 140.425 196.059 140.751 193.796C141.077 191.533 141.415 189.333 141.488 188.112C141.493 188.03 141.482 187.948 141.455 187.87C141.429 187.792 141.387 187.72 141.332 187.659C141.278 187.597 141.211 187.547 141.137 187.511C141.063 187.475 140.983 187.453 140.901 187.448Z" fill="#5B8A34"/>
</g>
<path d="M53.9128 161.411C54.8679 153.847 56.2891 147.216 57.7219 140.608C62.6708 136.81 68.8972 133.863 75.5954 131.232C81.6519 129.92 86.6417 128.304 95.2268 127.715C101.785 128.786 108.201 130.852 114.565 133.283C118.401 135.234 122.294 136.977 128.044 141.194C133.832 144.079 138.442 148.536 143.091 152.941C146.708 159.635 148.203 166.025 150.605 172.546C148.374 178.481 145.803 184.19 142.694 189.54C136.636 193.338 130.285 195.967 123.942 198.623C115.984 199.456 108.034 200.297 98.7429 199.795C91.6131 199.256 84.4832 196.304 77.3534 192.763C71.8006 188.98 66.7142 183.682 61.531 178.699C58.3361 173.413 56.0461 167.469 53.9128 161.411Z" fill="#E8F6C1"/>
<path d="M95.1189 126.152C86.3799 126.751 81.2341 128.408 75.2638 129.7C75.1814 129.718 75.1006 129.743 75.0221 129.774C68.2612 132.43 61.9117 135.42 56.7699 139.366C56.4758 139.591 56.271 139.913 56.1917 140.275C54.7584 146.885 53.324 153.573 52.359 161.216C52.3286 161.457 52.3547 161.702 52.4355 161.931C54.5788 168.018 56.8973 174.061 60.1897 179.508C60.2608 179.626 60.3472 179.734 60.4466 179.829C65.599 184.783 70.7247 190.144 76.472 194.059C76.5307 194.099 76.592 194.134 76.6556 194.166C83.8473 197.737 91.1442 200.791 98.6243 201.357C98.6355 201.358 98.6468 201.359 98.658 201.36C108.092 201.869 116.148 201.012 124.105 200.18C124.256 200.164 124.405 200.125 124.545 200.066C130.885 197.412 137.325 194.755 143.525 190.868C143.741 190.733 143.921 190.547 144.049 190.327C147.212 184.883 149.818 179.094 152.072 173.096C152.204 172.745 152.205 172.357 152.075 172.004C149.715 165.598 148.197 159.097 144.468 152.195C144.389 152.05 144.288 151.918 144.168 151.804C139.527 147.406 134.81 142.816 128.742 139.792L128.968 139.932C123.113 135.638 119.067 133.816 115.277 131.887C115.227 131.862 115.176 131.84 115.124 131.82C108.708 129.37 102.194 127.266 95.4798 126.17C95.3606 126.15 95.2395 126.144 95.1189 126.152ZM95.1586 129.303C101.475 130.352 107.711 132.343 113.94 134.72C117.792 136.676 121.514 138.346 127.118 142.456C127.189 142.509 127.265 142.556 127.344 142.596C132.767 145.299 137.216 149.535 141.794 153.874C145.119 160.094 146.642 166.145 148.934 172.491C146.82 178.054 144.4 183.388 141.522 188.394C135.77 191.952 129.706 194.51 123.551 197.087C115.675 197.911 107.9 198.718 98.8446 198.231C92.1063 197.718 85.1872 194.891 78.1636 191.41C72.8957 187.805 67.9237 182.682 62.7989 177.746C59.8075 172.761 57.5973 167.102 55.531 161.258C56.4465 154.155 57.7774 147.857 59.1405 141.562C63.812 138.076 69.6746 135.248 76.0836 132.725C82.099 131.414 86.9295 129.887 95.1586 129.303Z" fill="#87C352"/>
<path d="M99.5244 103.685C100.771 109.296 106.238 92.9822 101.529 97.321C99.7687 98.9432 98.9975 101.312 99.5244 103.685Z" fill="#87C352"/>
<path d="M110.353 98.0184C106.449 98.9402 108.469 100.194 110.871 100.194C118.044 100.194 114.75 96.9803 110.353 98.0184Z" fill="#87C352"/>
<path d="M118.537 105.27C119.279 110.216 122.004 106.236 121.754 103.485C121.509 100.795 118.484 98.552 118.33 101.178C118.261 102.351 118.302 103.701 118.537 105.27Z" fill="#87C352"/>
<path d="M110.043 105.581C107.699 104.877 108.655 109.962 109.11 112.314C110.246 118.176 115.338 107.171 110.043 105.581Z" fill="#87C352"/>
<path d="M117.191 115.422C110.369 124.617 130.261 112.085 123.924 110.968C121.159 110.48 118.232 114.018 117.191 115.422Z" fill="#87C352"/>
<path d="M100.823 115.111C109.924 114.698 98.4266 107.777 95.2806 113.635C94.5684 114.961 96.0039 115.243 96.7309 115.267C97.8016 115.302 99.3066 115.18 100.823 115.111Z" fill="#87C352"/>
<path d="M89.7902 116.976C89.7087 117.644 90.5576 118.536 93.416 121.301C101.205 128.836 99.5901 117.843 92.2117 116.044C90.8515 115.712 89.9596 115.588 89.7902 116.976Z" fill="#87C352"/>
<path d="M104.552 120.032C97.9648 119.68 108.649 127.093 112.218 125.989C115.532 124.964 106.024 120.111 104.552 120.032Z" fill="#87C352"/>
<path d="M117.916 125.471C124.753 118.162 119.939 132.308 115.015 131.997C111.388 131.768 116.864 126.595 117.916 125.471Z" fill="#87C352"/>
<path d="M36.8643 116.05C36.8067 121.798 45.8283 107.147 40.2589 110.306C38.1765 111.488 36.8886 113.62 36.8643 116.05Z" fill="#87C352"/>
<path d="M48.6955 112.985C44.6835 112.998 46.3673 114.677 48.7072 115.221C55.6929 116.846 53.2134 112.97 48.6955 112.985Z" fill="#87C352"/>
<path d="M55.0238 121.902C54.6258 126.888 58.1809 123.629 58.5606 120.893C58.9319 118.217 56.4942 115.347 55.7491 117.87C55.4164 118.996 55.1501 120.32 55.0238 121.902Z" fill="#87C352"/>
<path d="M46.6796 120.28C44.5561 119.064 44.335 124.234 44.2459 126.628C44.0238 132.594 51.4765 123.029 46.6796 120.28Z" fill="#87C352"/>
<path d="M51.412 131.485C42.6846 138.895 64.8983 131.196 58.9797 128.672C56.3967 127.57 52.7449 130.353 51.412 131.485Z" fill="#87C352"/>
<path d="M35.5401 127.474C44.4987 129.133 34.8677 119.788 30.4764 124.781C29.4822 125.911 30.8167 126.51 31.5193 126.698C32.5541 126.976 34.0477 127.198 35.5401 127.474Z" fill="#87C352"/>
<path d="M24.372 126.791C24.1412 127.423 24.766 128.484 26.9235 131.825C32.8032 140.928 33.7207 129.855 26.9417 126.431C25.6921 125.8 24.8515 125.477 24.372 126.791Z" fill="#87C352"/>
<path d="M38.0577 133.112C31.7212 131.276 40.4476 140.917 44.1747 140.65C47.6347 140.403 39.4734 133.522 38.0577 133.112Z" fill="#87C352"/>
<path d="M49.8415 141.437C58.1571 135.867 50.2625 148.554 45.5376 147.136C42.0562 146.091 48.5619 142.294 49.8415 141.437Z" fill="#87C352"/>
<path d="M89.8579 164.679C95.1833 166.843 84.8678 153.073 85.7615 159.413C86.0957 161.783 87.6065 163.764 89.8579 164.679Z" fill="#87C352"/>
<path d="M91.3506 152.549C89.8899 156.285 92.0696 155.336 93.435 153.359C97.5113 147.458 92.9956 148.341 91.3506 152.549Z" fill="#87C352"/>
<path d="M101.968 149.937C106.46 152.137 104.734 147.634 102.328 146.276C99.9753 144.948 96.4107 146.162 98.4838 147.781C99.4096 148.504 100.543 149.238 101.968 149.937Z" fill="#87C352"/>
<path d="M97.3963 157.102C95.485 158.631 100.213 160.735 102.407 161.697C107.875 164.094 101.714 153.65 97.3963 157.102Z" fill="#87C352"/>
<path d="M109.556 156.815C113.244 167.653 114.239 144.164 109.718 148.743C107.745 150.741 108.993 155.159 109.556 156.815Z" fill="#87C352"/>
<path d="M99.9978 170.105C104.83 162.381 92.6017 167.909 95.6333 173.826C96.3196 175.166 97.3669 174.145 97.8 173.56C98.4378 172.699 99.1928 171.392 99.9978 170.105Z" fill="#87C352"/>
<path d="M95.2615 180.243C95.7648 180.689 96.9812 180.498 100.881 179.717C111.508 177.591 101.544 172.672 95.8707 177.72C94.8248 178.651 94.2155 179.314 95.2615 180.243Z" fill="#87C352"/>
<path d="M106.166 169.833C102.132 175.053 114.304 170.476 115.424 166.911C116.464 163.602 107.067 168.667 106.166 169.833Z" fill="#87C352"/>
<path d="M118.236 161.929C116.109 152.149 125.011 164.151 121.957 168.025C119.707 170.879 118.563 163.434 118.236 161.929Z" fill="#87C352"/>
</svg>
