<svg width="48" height="48" viewBox="0 0 48 48" fill="currentColor" xmlns="http://www.w3.org/2000/svg">
<g clip-path="url(#clip0_2238_431)">
<path d="M22.002 7.6L22 11.526L18.212 19.106L18.118 19.326C17.9739 19.7282 17.9623 20.1659 18.085 20.5751C18.2078 20.9843 18.4583 21.3435 18.7999 21.6L25.464 26.598L22.212 33.106C22.0729 33.3835 22.0003 33.6896 22 34V40.834L7.60595 26.58C5.54252 24.5709 4.27048 21.8867 4.02204 19.0174C3.77361 16.1482 4.56537 13.2853 6.25276 10.9514C7.94016 8.61757 10.4106 6.9684 13.2132 6.305C16.0157 5.64161 18.9633 6.00826 21.518 7.338L22.002 7.6ZM33.542 6.122L34.034 6.196C36.2099 6.57156 38.24 7.54021 39.9008 8.99531C41.5616 10.4504 42.7887 12.3355 43.4471 14.4432C44.1055 16.5508 44.1695 18.7993 43.6323 20.941C43.095 23.0827 41.9772 25.0347 40.402 26.582L40.3139 26.656L26 40.832V34.47L29.788 26.894L29.882 26.674C30.026 26.2718 30.0376 25.8341 29.9149 25.4249C29.7921 25.0157 29.5416 24.6565 29.2 24.4L22.534 19.4L25.788 12.894C25.927 12.6165 25.9996 12.3104 26 12V7.626C28.2803 6.31128 30.9317 5.78281 33.542 6.122Z"/>
</g>
</svg>
