<svg width="48" height="48" viewBox="0 0 48 48" fill="currentColor" xmlns="http://www.w3.org/2000/svg">
<g clip-path="url(#clip0_2238_427)">
<path d="M13.958 6.148C15.7281 5.8464 17.5434 5.94589 19.2699 6.43914C20.9965 6.9324 22.5903 7.80683 23.934 8.998L24.008 9.064L24.076 9.004C25.3584 7.87859 26.8661 7.03959 28.4984 6.54297C30.1307 6.04634 31.8501 5.90351 33.542 6.124L34.034 6.196C36.1666 6.56422 38.16 7.50231 39.8029 8.91094C41.4459 10.3196 42.6774 12.1463 43.3669 14.1977C44.0564 16.249 44.1784 18.4487 43.7198 20.5637C43.2612 22.6788 42.2392 24.6304 40.762 26.212L40.402 26.582L40.306 26.664L25.406 41.422C25.0622 41.7623 24.6066 41.9665 24.1238 41.9966C23.6409 42.0268 23.1635 41.8809 22.78 41.586L22.592 41.422L7.60601 26.578C6.01845 25.0333 4.88941 23.0794 4.34393 20.9325C3.79845 18.7857 3.85781 16.5298 4.51545 14.4146C5.17309 12.2995 6.40333 10.4076 8.06993 8.94854C9.73654 7.48949 11.7745 6.52019 13.958 6.148Z"/>
</g>
</svg>
